<svg xmlns="http://www.w3.org/2000/svg" xmlns:xlink="http://www.w3.org/1999/xlink" xmlns:lucid="lucid" width="1921.33" height="1020"><g transform="translate(-240 -135.33333333333326)" lucid:page-tab-id="0XYVSbI_gzFs"><path d="M520 155.33h1621.33v980H520z" stroke="#232f3e" stroke-width="2" fill="#fff"/><path d="M520 155.33h56v56h-56v-56z" stroke="#fff" stroke-opacity="0" fill="#232f3e"/><path d="M560.88 196.55h-25c-4.13.05-7.57-3.1-7.9-7.2v-.63c-.15-3.4 1.97-6.4 5.25-7.36v-.66c.12-4.22 2.44-7.76 6.24-9.58 4.12-1.84 8.73-.95 11.8 2.32 1.1 1.08 1.85 2.2 2.45 3.6 1.2-1 2.72-1.33 4.24-.9 2.24.8 3.68 2.74 3.76 5.08 3.68.66 6.32 3.8 6.28 7.57 0 7.06-7.04 7.72-7.12 7.75zm-26.7-13.87c-2.83.6-4.75 3.13-4.6 6.04v.52c.3 3.33 3.1 5.83 6.4 5.75h24.98c3.04-.3 5.4-2.64 5.68-5.7.28-3.43-2.24-6.5-5.68-6.78-.44-.06-.72-.45-.64-.87.08-1.85-1-3.46-2.72-4.14-1.32-.36-2.64.14-3.44 1.25-.2.23-.44.36-.76.3-.28-.04-.48-.23-.6-.5-.6-1.6-1.4-2.84-2.6-4.03-2.68-2.8-6.6-3.58-10.13-2-3.24 1.6-5.2 4.64-5.32 8.26-.04.4-.04.73 0 1.13.04.4-.2.78-.6.85z" stroke="#fff" stroke-opacity="0" fill="#fff"/><use xlink:href="#a" transform="matrix(1,0,0,1,591,175.33333333333326) translate(0 14.4)"/><use xlink:href="#b" transform="matrix(1,0,0,1,591,175.33333333333326) translate(45.3 14.4)"/><path d="M841.33 338.8h121.4v57.08h-121.4z" stroke="#000" stroke-opacity="0" stroke-width="2" fill="#fff" fill-opacity="0"/><use xlink:href="#c" transform="matrix(1,0,0,1,846.3333333333335,343.79040453837706) translate(11.555555555555571 26.222222222222218)"/><path d="M714.56 650.32H907.2v126.66" stroke="#000" stroke-width="2" fill="none"/><path d="M714.6 651.32h-1.77l1.47-2h.3z" stroke="#000" stroke-width=".05"/><path d="M907.2 792.24l-4.64-14.26h9.27z" stroke="#000" stroke-width="2"/><path d="M715.83 604.97H904.7v-80.12" stroke="#000" stroke-width="2" fill="none"/><path d="M715.85 605.97h-.4l-1.25-2h1.65z" stroke="#000" stroke-width=".05"/><path d="M904.7 509.58l4.62 14.27h-9.27z" stroke="#000" stroke-width="2"/><path d="M828.06 398c0-11.64 9.44-21.08 21.1-21.08h108.47c11.65 0 21.1 9.44 21.1 21.1 0 11.64-9.45 21.08-21.1 21.08H849.15c-11.65 0-21.1-9.44-21.1-21.1z" stroke="#000" stroke-opacity="0" stroke-width="2" fill="#fff" fill-opacity="0"/><use xlink:href="#d" transform="matrix(1,0,0,1,833.0590709812473,381.9156548338733) translate(15.75 16)"/><use xlink:href="#e" transform="matrix(1,0,0,1,833.0590709812473,381.9156548338733) translate(63.02777777777778 16)"/><use xlink:href="#f" transform="matrix(1,0,0,1,833.0590709812473,381.9156548338733) translate(55.398148148148145 34.04444444444445)"/><path d="M823.5 896.57c0-11.65 9.43-21.1 21.08-21.1h108.48c11.65 0 21.1 9.45 21.1 21.1 0 11.65-9.45 21.1-21.1 21.1H844.58c-11.65 0-21.1-9.45-21.1-21.1z" stroke="#000" stroke-opacity="0" stroke-width="2" fill="#fff" fill-opacity="0"/><use xlink:href="#d" transform="matrix(1,0,0,1,828.4894188564299,880.4803254749356) translate(15.75 16)"/><use xlink:href="#e" transform="matrix(1,0,0,1,828.4894188564299,880.4803254749356) translate(63.02777777777778 16)"/><use xlink:href="#g" transform="matrix(1,0,0,1,828.4894188564299,880.4803254749356) translate(55.398148148148145 34.04444444444445)"/><use xlink:href="#h" transform="matrix(1,0,0,1,828.4894188564299,880.4803254749356) translate(70.5 50.84444444444445)"/><path d="M916.86 507.35v97h162.87" stroke="#000" stroke-width="2" fill="none"/><path d="M917.86 507.37h-2v-1.02h2z" stroke="#000" stroke-width=".05"/><path d="M1095 604.36l-14.27 4.64v-9.27z" stroke="#000" stroke-width="2"/><path d="M918.86 794.48V650.33h161.7" stroke="#000" stroke-width="2" fill="none"/><path d="M919.86 795.48h-2v-1.03h2z" stroke="#000" stroke-width=".05"/><path d="M1095.83 650.33l-14.27 4.64v-9.27z" stroke="#000" stroke-width="2"/><path d="M1274.16 398c0-11.64 9.45-21.08 21.1-21.08h108.48c11.65 0 21.1 9.44 21.1 21.1 0 11.64-9.45 21.08-21.1 21.08h-108.48c-11.65 0-21.1-9.44-21.1-21.1z" stroke="#000" stroke-opacity="0" stroke-width="2" fill="#fff" fill-opacity="0"/><use xlink:href="#i" transform="matrix(1,0,0,1,1279.1637404061578,381.9156548338733) translate(17.25 16)"/><use xlink:href="#e" transform="matrix(1,0,0,1,1279.1637404061578,381.9156548338733) translate(61.52777777777778 16)"/><use xlink:href="#f" transform="matrix(1,0,0,1,1279.1637404061578,381.9156548338733) translate(55.398148148148145 34.04444444444445)"/><path d="M1011.5 311.52h43.8v43.8h-43.8v-43.8z" stroke="#fff" stroke-opacity="0" stroke-width="2" fill="#d86613"/><path d="M1032.8 320.82v5.6h1.2v-5.6l2.7 2.7.83-.8-3.72-3.72c-.22-.24-.6-.23-.8 0l-3.73 3.7.83.83zM1034 346.03v-5.6h-1.2v5.6l-2.7-2.72-.83.84 3.72 3.7v.02c.22.23.6.22.8 0l3.73-3.72-.83-.83zM1037.5 328.84v-1.26h-1.18v1.17h-1.17v-1.17h-1.17v1.17h-1.16v-1.17h-1.17v1.17h-1.17v-1.17h-1.17v1.26c-.22.1-.4.27-.5.5h-1.24v1.16h1.17v1.17h-1.17v1.17h1.17V334h-1.17v1.17h1.17v1.17h-1.17v1.17h1.25c.1.24.28.4.5.5v1.26h1.18v-1.16h1.17v1.16h1.17v-1.16h1.16v1.16h1.17v-1.16h1.17v1.16h1.17V338c.22-.1.4-.26.48-.5h1.26v-1.16h-1.17v-1.17h1.17V334h-1.17v-1.16h1.17v-1.17h-1.17v-1.17h1.17v-1.17h-1.27c-.1-.22-.26-.38-.5-.5zm-.6 8.1h-7v-7.02h7zM1022.46 329.33l-.82.83 2.7 2.68h-5.54V334h5.6l-2.76 2.77.82.82 3.72-3.72c.12-.12.17-.25.17-.42 0-.15-.06-.3-.17-.4zM1048 332.84h-5.52l2.68-2.68-.82-.83-3.72 3.72c-.1.12-.17.26-.17.4 0 .18.05.3.17.43l3.72 3.7.82-.8-2.76-2.77h5.6z" stroke="#fff" stroke-opacity="0" stroke-width="2" fill="#fff"/><use xlink:href="#j" transform="matrix(1,0,0,1,981.4946645558309,364.33333333333314) translate(33.5 14.4)"/><use xlink:href="#k" transform="matrix(1,0,0,1,981.4946645558309,364.33333333333314) translate(22.549999999999997 36)"/><path d="M1466.6 311.52h43.8v43.8h-43.8v-43.8z" stroke="#fff" stroke-opacity="0" stroke-width="2" fill="#d86613"/><path d="M1487.9 320.82v5.6h1.18v-5.6l2.72 2.7.82-.8-3.7-3.72c-.24-.24-.62-.23-.84 0l-3.72 3.7.83.83zM1489.08 346.03v-5.6h-1.17v5.6l-2.7-2.72-.84.84 3.72 3.7v.02c.23.23.6.22.83 0l3.72-3.72-.82-.83zM1492.58 328.84v-1.26h-1.17v1.17h-1.15v-1.17h-1.17v1.17h-1.17v-1.17h-1.16v1.17h-1.17v-1.17h-1.16v1.26c-.23.1-.4.27-.5.5h-1.25v1.16h1.17v1.17h-1.17v1.17h1.17V334h-1.17v1.17h1.17v1.17h-1.17v1.17h1.25c.1.24.27.4.5.5v1.26h1.17v-1.16h1.17v1.16h1.17v-1.16h1.18v1.16h1.17v-1.16h1.16v1.16h1.18V338c.24-.1.4-.26.5-.5h1.26v-1.16h-1.17v-1.17h1.17V334h-1.17v-1.16h1.17v-1.17h-1.17v-1.17h1.17v-1.17h-1.28c-.1-.22-.25-.38-.5-.5zm-.58 8.1h-7v-7.02h7zM1477.55 329.33l-.82.83 2.7 2.68h-5.54V334h5.6l-2.77 2.77.82.82 3.73-3.72c.1-.12.16-.25.16-.42 0-.15-.06-.3-.16-.4zM1503.1 332.84h-5.52l2.68-2.68-.83-.83-3.72 3.72c-.1.12-.16.26-.16.4 0 .18.06.3.17.43l3.73 3.7.83-.8-2.77-2.77h5.6z" stroke="#fff" stroke-opacity="0" stroke-width="2" fill="#fff"/><use xlink:href="#j" transform="matrix(1,0,0,1,1436.5885002633438,364.33333333333314) translate(33.5 14.4)"/><use xlink:href="#k" transform="matrix(1,0,0,1,1436.5885002633438,364.33333333333314) translate(22.549999999999997 36)"/><path d="M1715.58 412.6c0-11.66 9.44-21.1 21.1-21.1h108.47c11.65 0 21.1 9.44 21.1 21.1 0 11.64-9.45 21.08-21.1 21.08h-108.48c-11.65 0-21.1-9.44-21.1-21.1z" stroke="#000" stroke-opacity="0" stroke-width="2" fill="#fff" fill-opacity="0"/><use xlink:href="#l" transform="matrix(1,0,0,1,1720.576382649054,396.4970951978264) translate(32.27777777777778 16)"/><use xlink:href="#m" transform="matrix(1,0,0,1,1720.576382649054,396.4970951978264) translate(79.94444444444444 16)"/><use xlink:href="#n" transform="matrix(1,0,0,1,1720.576382649054,396.4970951978264) translate(45.48148148148148 34.04444444444445)"/><path d="M1164.65 650.16h185.72v126.82" stroke="#000" stroke-width="2" fill="none"/><path d="M1164.68 651.16h-1.76l1.47-2h.28z" stroke="#000" stroke-width=".05"/><path d="M1350.37 792.24l-4.63-14.26h9.27z" stroke="#000" stroke-width="2"/><path d="M1165 603.7h184.23v-78.85" stroke="#000" stroke-width="2" fill="none"/><path d="M1165.03 604.7h-.4l-.84-1.34-.55-.66h1.78z" stroke="#000" stroke-width=".05"/><path d="M1349.23 509.58l4.63 14.27h-9.27z" stroke="#000" stroke-width="2"/><path d="M1721.33 885.57c0-11.65 9.45-21.1 21.1-21.1h108.48c11.66 0 21.1 9.45 21.1 21.1 0 11.65-9.44 21.1-21.1 21.1h-108.48c-11.64 0-21.1-9.45-21.1-21.1z" stroke="#000" stroke-opacity="0" stroke-width="2" fill="#fff" fill-opacity="0"/><use xlink:href="#l" transform="matrix(1,0,0,1,1726.3333333333333,869.4803254749356) translate(32.27777777777778 16)"/><use xlink:href="#o" transform="matrix(1,0,0,1,1726.3333333333333,869.4803254749356) translate(79.94444444444444 16)"/><use xlink:href="#p" transform="matrix(1,0,0,1,1726.3333333333333,869.4803254749356) translate(21.75925925925926 34.04444444444445)"/><use xlink:href="#q" transform="matrix(1,0,0,1,1726.3333333333333,869.4803254749356) translate(64.01851851851852 34.04444444444445)"/><path d="M1350.23 506.35h16.8v98.98h409.2V523.2M1350.25 506.35h-1.02" stroke="#000" stroke-width="2" fill="none"/><path d="M1776.23 507.94l4.63 14.26h-9.27z" stroke="#000" stroke-width="2"/><path d="M1366.4 794.48V645.33h437.1V523.67" stroke="#000" stroke-width="2" fill="none"/><path d="M1367.4 795.48h-2v-1.03h2z" stroke="#000" stroke-width=".05"/><path d="M1803.5 508.4l4.64 14.27h-9.27z" stroke="#000" stroke-width="2"/><path d="M1816.9 472.1c0 .54-.44 1-1 1-.55 0-1-.46-1-1 0-.56.45-1 1-1 .56 0 1 .44 1 1zm4 0c0 .54-.44 1-1 1-.55 0-1-.46-1-1 0-.56.45-1 1-1 .56 0 1 .44 1 1zm4 0c0 .54-.44 1-1 1-.55 0-1-.46-1-1 0-.56.45-1 1-1 .56 0 1 .44 1 1zm4 0c0 .54-.44 1-1 1-.55 0-1-.46-1-1 0-.56.45-1 1-1 .56 0 1 .44 1 1zm4 0c0 .54-.44 1-1 1-.55 0-1-.46-1-1 0-.56.45-1 1-1 .56 0 1 .44 1 1zm4 0c0 .54-.44 1-1 1-.55 0-1-.46-1-1 0-.56.45-1 1-1 .56 0 1 .44 1 1zm4 0c0 .54-.44 1-1 1-.55 0-1-.46-1-1 0-.56.45-1 1-1 .56 0 1 .44 1 1zm4 0c0 .54-.44 1-1 1-.55 0-1-.46-1-1 0-.56.45-1 1-1 .56 0 1 .44 1 1zm4 0c0 .54-.44 1-1 1-.55 0-1-.46-1-1 0-.56.45-1 1-1 .56 0 1 .44 1 1zm4 0c0 .54-.44 1-1 1-.54 0-1-.46-1-1 0-.56.46-1 1-1 .56 0 1 .44 1 1zm3 1c0 .55-.44 1-1 1-.55 0-1-.45-1-1 0-.56.45-1 1-1 .56 0 1 .44 1 1zm0 4c0 .55-.44 1-1 1-.55 0-1-.45-1-1 0-.56.45-1 1-1 .56 0 1 .44 1 1zm0 4c0 .55-.44 1-1 1-.55 0-1-.45-1-1 0-.56.45-1 1-1 .56 0 1 .44 1 1zm0 4c0 .55-.44 1-1 1-.55 0-1-.45-1-1 0-.56.45-1 1-1 .56 0 1 .44 1 1zm0 4c0 .55-.44 1-1 1-.55 0-1-.45-1-1 0-.56.45-1 1-1 .56 0 1 .44 1 1zm0 4c0 .55-.44 1-1 1-.55 0-1-.45-1-1s.45-1 1-1c.56 0 1 .45 1 1zm0 4c0 .55-.44 1-1 1-.55 0-1-.45-1-1s.45-1 1-1c.56 0 1 .45 1 1zm0 4c0 .55-.44 1-1 1-.55 0-1-.45-1-1s.45-1 1-1c.56 0 1 .45 1 1zm0 4c0 .55-.44 1-1 1-.55 0-1-.45-1-1s.45-1 1-1c.56 0 1 .45 1 1zm0 4c0 .55-.44 1-1 1-.55 0-1-.45-1-1s.45-1 1-1c.56 0 1 .45 1 1zm0 4c0 .55-.44 1-1 1-.55 0-1-.45-1-1s.45-1 1-1c.56 0 1 .45 1 1zm0 4c0 .55-.44 1-1 1-.55 0-1-.45-1-1s.45-1 1-1c.56 0 1 .45 1 1zm0 4c0 .55-.44 1-1 1-.55 0-1-.45-1-1s.45-1 1-1c.56 0 1 .45 1 1zm0 4c0 .55-.44 1-1 1-.55 0-1-.45-1-1s.45-1 1-1c.56 0 1 .45 1 1zm0 4c0 .55-.44 1-1 1-.55 0-1-.45-1-1s.45-1 1-1c.56 0 1 .45 1 1zm0 4c0 .55-.44 1-1 1-.55 0-1-.45-1-1s.45-1 1-1c.56 0 1 .45 1 1zm0 4c0 .55-.44 1-1 1-.55 0-1-.45-1-1s.45-1 1-1c.56 0 1 .45 1 1zm0 4c0 .56-.44 1-1 1-.55 0-1-.44-1-1 0-.55.45-1 1-1 .56 0 1 .45 1 1zm0 4c0 .56-.44 1-1 1-.55 0-1-.44-1-1 0-.55.45-1 1-1 .56 0 1 .45 1 1zm0 4c0 .56-.44 1-1 1-.55 0-1-.44-1-1 0-.55.45-1 1-1 .56 0 1 .45 1 1zm0 4c0 .56-.44 1-1 1-.55 0-1-.44-1-1 0-.55.45-1 1-1 .56 0 1 .45 1 1zm0 4c0 .56-.44 1-1 1-.55 0-1-.44-1-1 0-.55.45-1 1-1 .56 0 1 .45 1 1zm0 4c0 .56-.44 1-1 1-.55 0-1-.44-1-1 0-.55.45-1 1-1 .56 0 1 .45 1 1zm0 4c0 .56-.44 1-1 1-.55 0-1-.44-1-1 0-.55.45-1 1-1 .56 0 1 .45 1 1zm0 4c0 .56-.44 1-1 1-.55 0-1-.44-1-1 0-.55.45-1 1-1 .56 0 1 .45 1 1zm0 4c0 .56-.44 1-1 1-.55 0-1-.44-1-1 0-.55.45-1 1-1 .56 0 1 .45 1 1zm0 4c0 .56-.44 1-1 1-.55 0-1-.44-1-1 0-.55.45-1 1-1 .56 0 1 .45 1 1zm0 4c0 .56-.44 1-1 1-.55 0-1-.44-1-1 0-.54.45-1 1-1 .56 0 1 .46 1 1zm0 4c0 .56-.44 1-1 1-.55 0-1-.44-1-1 0-.54.45-1 1-1 .56 0 1 .46 1 1zm0 4c0 .56-.44 1-1 1-.55 0-1-.44-1-1 0-.54.45-1 1-1 .56 0 1 .46 1 1zm0 4c0 .56-.44 1-1 1-.55 0-1-.44-1-1 0-.54.45-1 1-1 .56 0 1 .46 1 1zm0 4c0 .56-.44 1-1 1-.55 0-1-.44-1-1 0-.54.45-1 1-1 .56 0 1 .46 1 1zm0 4c0 .56-.44 1-1 1-.55 0-1-.44-1-1 0-.54.45-1 1-1 .56 0 1 .46 1 1zm0 4c0 .56-.44 1-1 1-.55 0-1-.44-1-1 0-.54.45-1 1-1 .56 0 1 .46 1 1zm0 4c0 .56-.44 1-1 1-.55 0-1-.44-1-1 0-.54.45-1 1-1 .56 0 1 .46 1 1zm0 4c0 .56-.44 1-1 1-.55 0-1-.44-1-1 0-.54.45-1 1-1 .56 0 1 .46 1 1zm0 4c0 .56-.44 1-1 1-.55 0-1-.44-1-1 0-.54.45-1 1-1 .56 0 1 .46 1 1zm0 4c0 .56-.44 1-1 1-.55 0-1-.44-1-1 0-.54.45-1 1-1 .56 0 1 .46 1 1zm0 4c0 .56-.44 1-1 1-.55 0-1-.44-1-1 0-.54.45-1 1-1 .56 0 1 .46 1 1zm0 4c0 .57-.44 1-1 1-.55 0-1-.43-1-1 0-.54.45-1 1-1 .56 0 1 .46 1 1zm0 4c0 .57-.44 1-1 1-.55 0-1-.43-1-1 0-.54.45-1 1-1 .56 0 1 .46 1 1zm0 4c0 .57-.44 1-1 1-.55 0-1-.43-1-1 0-.54.45-1 1-1 .56 0 1 .46 1 1zm0 4c0 .57-.44 1-1 1-.55 0-1-.43-1-1 0-.54.45-1 1-1 .56 0 1 .46 1 1zm0 4.02c0 .55-.44 1-1 1-.55 0-1-.45-1-1 0-.56.45-1 1-1 .56 0 1 .44 1 1zm0 4c0 .55-.44 1-1 1-.55 0-1-.45-1-1 0-.56.45-1 1-1 .56 0 1 .44 1 1zm0 4c0 .55-.44 1-1 1-.55 0-1-.45-1-1 0-.56.45-1 1-1 .56 0 1 .44 1 1zm0 4c0 .55-.44 1-1 1-.55 0-1-.45-1-1 0-.56.45-1 1-1 .56 0 1 .44 1 1zm0 4c0 .55-.44 1-1 1-.55 0-1-.45-1-1 0-.56.45-1 1-1 .56 0 1 .44 1 1zm0 4c0 .55-.44 1-1 1-.55 0-1-.45-1-1s.45-1 1-1c.56 0 1 .45 1 1zm0 4c0 .55-.44 1-1 1-.55 0-1-.45-1-1s.45-1 1-1c.56 0 1 .45 1 1zm0 4c0 .55-.44 1-1 1-.55 0-1-.45-1-1s.45-1 1-1c.56 0 1 .45 1 1zm0 4c0 .55-.44 1-1 1-.55 0-1-.45-1-1s.45-1 1-1c.56 0 1 .45 1 1zm0 4c0 .55-.44 1-1 1-.55 0-1-.45-1-1s.45-1 1-1c.56 0 1 .45 1 1zm0 4c0 .55-.44 1-1 1-.55 0-1-.45-1-1s.45-1 1-1c.56 0 1 .45 1 1zm0 4c0 .55-.44 1-1 1-.55 0-1-.45-1-1s.45-1 1-1c.56 0 1 .45 1 1zm0 4c0 .55-.44 1-1 1-.55 0-1-.45-1-1s.45-1 1-1c.56 0 1 .45 1 1zm0 4c0 .55-.44 1-1 1-.55 0-1-.45-1-1s.45-1 1-1c.56 0 1 .45 1 1zm0 4c0 .55-.44 1-1 1-.55 0-1-.45-1-1s.45-1 1-1c.56 0 1 .45 1 1zm0 4c0 .55-.44 1-1 1-.55 0-1-.45-1-1s.45-1 1-1c.56 0 1 .45 1 1zm0 4c0 .55-.44 1-1 1-.55 0-1-.45-1-1s.45-1 1-1c.56 0 1 .45 1 1zm0 4c0 .56-.44 1-1 1-.55 0-1-.44-1-1 0-.55.45-1 1-1 .56 0 1 .45 1 1zm0 4c0 .56-.44 1-1 1-.55 0-1-.44-1-1 0-.55.45-1 1-1 .56 0 1 .45 1 1zm0 4c0 .56-.44 1-1 1-.55 0-1-.44-1-1 0-.55.45-1 1-1 .56 0 1 .45 1 1zm0 4c0 .56-.44 1-1 1-.55 0-1-.44-1-1 0-.55.45-1 1-1 .56 0 1 .45 1 1zm0 4c0 .56-.44 1-1 1-.55 0-1-.44-1-1 0-.55.45-1 1-1 .56 0 1 .45 1 1zm0 4c0 .56-.44 1-1 1-.55 0-1-.44-1-1 0-.55.45-1 1-1 .56 0 1 .45 1 1zm0 4c0 .56-.44 1-1 1-.55 0-1-.44-1-1 0-.55.45-1 1-1 .56 0 1 .45 1 1zm0 4c0 .56-.44 1-1 1-.55 0-1-.44-1-1 0-.55.45-1 1-1 .56 0 1 .45 1 1zm0 4c0 .56-.44 1-1 1-.55 0-1-.44-1-1 0-.55.45-1 1-1 .56 0 1 .45 1 1zm0 4c0 .56-.44 1-1 1-.55 0-1-.44-1-1 0-.55.45-1 1-1 .56 0 1 .45 1 1zm0 4c0 .56-.44 1-1 1-.55 0-1-.44-1-1 0-.54.45-1 1-1 .56 0 1 .46 1 1zm0 4c0 .56-.44 1-1 1-.55 0-1-.44-1-1 0-.54.45-1 1-1 .56 0 1 .46 1 1zm0 4c0 .56-.44 1-1 1-.55 0-1-.44-1-1 0-.54.45-1 1-1 .56 0 1 .46 1 1zm0 4c0 .56-.44 1-1 1-.55 0-1-.44-1-1 0-.54.45-1 1-1 .56 0 1 .46 1 1zm0 4c0 .56-.44 1-1 1-.55 0-1-.44-1-1 0-.54.45-1 1-1 .56 0 1 .46 1 1zm0 4c0 .56-.44 1-1 1-.55 0-1-.44-1-1 0-.54.45-1 1-1 .56 0 1 .46 1 1zm0 4c0 .56-.44 1-1 1-.55 0-1-.44-1-1 0-.54.45-1 1-1 .56 0 1 .46 1 1zm0 4c0 .56-.44 1-1 1-.55 0-1-.44-1-1 0-.54.45-1 1-1 .56 0 1 .46 1 1zm0 4c0 .56-.44 1-1 1-.55 0-1-.44-1-1 0-.54.45-1 1-1 .56 0 1 .46 1 1zm0 4c0 .56-.44 1-1 1-.55 0-1-.44-1-1 0-.54.45-1 1-1 .56 0 1 .46 1 1zm0 4c0 .56-.44 1-1 1-.55 0-1-.44-1-1 0-.54.45-1 1-1 .56 0 1 .46 1 1zm0 4c0 .56-.44 1-1 1-.55 0-1-.44-1-1 0-.54.45-1 1-1 .56 0 1 .46 1 1zm0 4c0 .57-.44 1-1 1-.55 0-1-.43-1-1 0-.54.45-1 1-1 .56 0 1 .46 1 1zm0 4c0 .57-.44 1-1 1-.55 0-1-.43-1-1 0-.54.45-1 1-1 .56 0 1 .46 1 1zm0 4c0 .57-.44 1-1 1-.55 0-1-.43-1-1 0-.54.45-1 1-1 .56 0 1 .46 1 1zm0 4c0 .57-.44 1-1 1-.55 0-1-.43-1-1 0-.54.45-1 1-1 .56 0 1 .46 1 1zm0 4.02c0 .55-.44 1-1 1-.55 0-1-.45-1-1 0-.56.45-1 1-1 .56 0 1 .44 1 1zm0 4c0 .55-.44 1-1 1-.55 0-1-.45-1-1 0-.56.45-1 1-1 .56 0 1 .44 1 1zm0 4c0 .55-.44 1-1 1-.55 0-1-.45-1-1 0-.56.45-1 1-1 .56 0 1 .44 1 1zm-1.5 2.5c0 .55-.44 1-1 1-.54 0-1-.45-1-1s.46-1 1-1c.56 0 1 .45 1 1zm-4 0c0 .55-.44 1-1 1-.55 0-1-.45-1-1s.45-1 1-1c.56 0 1 .45 1 1zm-4 0c0 .55-.44 1-1 1-.55 0-1-.45-1-1s.45-1 1-1c.56 0 1 .45 1 1zm-4 0c0 .55-.44 1-1 1-.55 0-1-.45-1-1s.45-1 1-1c.56 0 1 .45 1 1zm-4 0c0 .55-.44 1-1 1-.55 0-1-.45-1-1s.45-1 1-1c.56 0 1 .45 1 1zm-4 0c0 .55-.44 1-1 1-.55 0-1-.45-1-1s.45-1 1-1c.56 0 1 .45 1 1z"/><path d="M1815.93 473.1h-1.03v-2h1.03z" stroke="#000" stroke-width=".05"/><path d="M1818.14 827.64l14.27-4.63v9.28z" stroke="#000" stroke-width="2"/><path d="M1851.6 591h122.5v80h-122.5z" stroke="#000" stroke-opacity="0" stroke-width="2" fill="#fff" fill-opacity="0"/><use xlink:href="#r" transform="matrix(1,0,0,1,1856.6128641246087,596.0136177975314) translate(6.253086419753089 38.28472222222222)"/><use xlink:href="#s" transform="matrix(1,0,0,1,1856.6128641246087,596.0136177975314) translate(11.191358024691361 38.28472222222222)"/><path d="M580 195.33h1501.33v900H580z" stroke="#248814" stroke-width="2" fill="#fff" fill-opacity="0"/><path d="M580 195.33h56v56h-56v-56z" stroke="#fff" stroke-opacity="0" fill="#248814"/><path d="M611.76 223.64h-1.18v-1.1c-.12-1.74-1.48-3.08-3.2-3.2-1.9-.13-3.54 1.3-3.67 3.2v1.06h-1.17c-.44 0-.8.36-.8.8v6.13c0 .44.36.8.8.8h9.23c.44 0 .8-.36.8-.8v-6.1c0-.43-.36-.8-.8-.8zm-6.4-1.07c.1-1.02 1-1.77 2-1.67.9.08 1.58.77 1.67 1.67v1.07h-3.72zm5.65 7.08h-7.67v-4.42h7.63z" stroke="#fff" stroke-opacity="0" fill="#fff"/><path d="M622.27 221.08c-.08-2.45-1.58-4.48-3.87-5.3-1.58-.47-3.16-.14-4.4.9-.68-1.45-1.47-2.6-2.6-3.76-3.24-3.35-7.94-4.28-12.18-2.4-4.04 1.9-6.4 5.64-6.54 10.06v.72c-3.4.96-5.66 4.06-5.5 7.63v.63c.4 4.28 3.92 7.52 8.2 7.47h26s7.42-.63 7.42-8.1c.04-3.9-2.66-7.2-6.53-7.85zm-.96 14.38h-25.9c-3.47.06-6.3-2.52-6.6-5.95v-.5c-.15-3.06 1.93-5.73 4.92-6.33.38-.1.63-.47.6-.88-.06-.42-.06-.75 0-1.16.07-3.8 2.1-6.95 5.52-8.6 1.25-.57 2.4-.82 3.83-.85 2.62.08 4.87 1.04 6.7 2.93 1.25 1.3 2.04 2.6 2.62 4.3.03.15.1.3.24.37.37.27.87.2 1.12-.17.83-1.18 2.25-1.67 3.62-1.3 1.8.73 2.87 2.4 2.83 4.32-.07.42.22.83.64.9 3.57.37 6.2 3.55 5.82 7.12-.3 3.13-2.7 5.52-5.82 5.85z" stroke="#fff" stroke-opacity="0" fill="#fff"/><use xlink:href="#t" transform="matrix(1,0,0,1,651,215.33333333333326) translate(0 14.4)"/><use xlink:href="#u" transform="matrix(1,0,0,1,651,215.33333333333326) translate(55.5 14.4)"/><use xlink:href="#v" transform="matrix(1,0,0,1,651,215.33333333333326) translate(116.4 14.4)"/><path d="M660 233.6h1364.24v321.73H660z" fill="#fff" fill-opacity="0"/><path d="M672.04 233.6h8.02m8.03 0h8m8.04 0h8.02m8.03 0h8m8.04 0h8.02m8.03 0h8m8.04 0h8.02m8.03 0h8m8.04 0h8.02m8.03 0h8m8.04 0h8.02m8.03 0h8m8.04 0h8.02m8.03 0h8m8.04 0h8.02m8.02 0h8.03m8.03 0h8.03m8.02 0h8.03m8.03 0h8.03m8.02 0H985m8.03 0h8.03m8.02 0h8.03m8.03 0h8.03m8.02 0h8.03m8.03 0h8.03m8.02 0h8.03m8.03 0h8.03m8.02 0h8.03m8.03 0h8.03m8.02 0h8.03m8.03 0h8.03m8.02 0h8.03m8.03 0h8.03m8.02 0h8.03m8.03 0h8.03m8.02 0h8.03m8.03 0h8.03m8.02 0h8.03m8.03 0h8.03m8.02 0h8.03m8.03 0h8.03m8.02 0h8.03m8.03 0h8.03m8.02 0h8.03m8.03 0h8.03m8.02 0h8.02m8.03 0h8.02m8.03 0h8.02m8.03 0h8.02m8.03 0h8.02m8.03 0h8.02m8.03 0h8.02m8.03 0h8.02m8.03 0h8.02m8.03 0h8.02m8.03 0h8.02m8.03 0h8.02m8.03 0h8.02m8.03 0h8.02m8.03 0h8.02m8.03 0h8.02m8.03 0h8.02m8.03 0h8.02m8.03 0h8.02m8.03 0h8.02m8.03 0h8.02m8.03 0h8.02m8.03 0h8.02m8.03 0h8.02m8.03 0h8.02m8.03 0h8.02m8.03 0h8.02m8.03 0h8.02m8.03 0h8.02m8.03 0h8.02m8.02 0h8.03m8.02 0h8.03m8.02 0h8.03m8.02 0h8.03m8.02 0h8.03m8.02 0h8.03m8.02 0h8.03m8.02 0h8.03m8.02 0h8.03m8.02 0h4.02v4m0 8.05v8.05m0 8.04v8.04m0 8.05v8.04m0 8.05v8.04m0 8.04v8.05m0 8.04v8.03m0 8.05v8.04m0 8.04v8.05m0 8.05v8.05m0 8.04v8.04m0 8.05v8.04m0 8.04v8.06m0 8.04v8.04m0 8.05v8.03m0 8.05v8.04m0 8.04V495m0 8.05v8.04m0 8.04v8.04m0 8.04v8.05m0 8.04v4.03h-4.02m-8.02 0h-8.03m-8.02 0h-8.03m-8.02 0h-8.03m-8.02 0h-8.03m-8.02 0h-8.03m-8.02 0h-8.03m-8.02 0h-8.03m-8.02 0h-8.03m-8.02 0h-8.03m-8.02 0h-8.02m-8.03 0h-8.02m-8.03 0h-8.02m-8.03 0h-8.02m-8.03 0h-8.02m-8.03 0h-8.02m-8.03 0h-8.02m-8.03 0h-8.02m-8.03 0h-8.02m-8.03 0h-8.02m-8.03 0h-8.02m-8.03 0h-8.02m-8.03 0h-8.02m-8.03 0h-8.02m-8.03 0h-8.02m-8.03 0h-8.02m-8.03 0h-8.02m-8.03 0h-8.02m-8.03 0h-8.02m-8.03 0h-8.02m-8.03 0h-8.02m-8.03 0h-8.02m-8.03 0h-8.02m-8.03 0h-8.02m-8.03 0h-8.02m-8.03 0h-8.02m-8.03 0h-8.02m-8.03 0h-8.02m-8.03 0h-8.02m-8.03 0h-8.02m-8.02 0h-8.03m-8.02 0h-8.02m-8.02 0h-8.03m-8.02 0h-8.02m-8.02 0h-8.03m-8.02 0H1298m-8.02 0h-8.03m-8.02 0h-8.02m-8.02 0h-8.03m-8.02 0h-8.02m-8.02 0h-8.03m-8.02 0h-8.02m-8.02 0h-8.03m-8.02 0h-8.02m-8.02 0h-8.03m-8.02 0h-8.02m-8.02 0h-8.03m-8.02 0h-8.02m-8.02 0h-8.03m-8.02 0h-8.02m-8.02 0h-8.03m-8.02 0h-8.02m-8.02 0h-8.03m-8.02 0h-8.02m-8.02 0h-8.03m-8.02 0H977m-8.02 0h-8.03m-8.02 0h-8.02m-8.02 0h-8.03m-8.02 0h-8.02m-8.02 0h-8.02m-8.03 0h-8m-8.04 0h-8.02m-8.03 0h-8m-8.04 0h-8.02m-8.03 0h-8m-8.04 0h-8.02m-8.03 0h-8m-8.04 0h-8.02m-8.03 0h-8m-8.04 0h-8.02m-8.03 0h-8m-8.04 0h-8.02m-8.03 0h-8m-8.04 0h-8.02m-8.03 0h-4v-4.02m0-8.03v-8.05m0-8.04v-8.04m0-8.05v-8.05m0-8.04v-8.04m0-8.04v-8.04m0-8.05v-8.04m0-8.06v-8.04m0-8.04v-8.05m0-8.03v-8.04m0-8.05v-8.04m0-8.04v-8.05m0-8.04v-8.04m0-8.04v-8.04m0-8.05v-8.04m0-8.05V310m0-8.04v-8.04m0-8.05v-8.04m0-8.05v-8.04m0-8.04v-8.05m0-8.04v-4h4" stroke="#147eba" stroke-width="2" fill="none"/><use xlink:href="#w" transform="matrix(1,0,0,1,660,253.5886922250338) translate(569.875 14.4)"/><use xlink:href="#x" transform="matrix(1,0,0,1,660,253.5886922250338) translate(659.275 14.4)"/><use xlink:href="#y" transform="matrix(1,0,0,1,660,253.5886922250338) translate(710.225 14.4)"/><path d="M660 715.17h1364.24v338.66H660z" fill="#fff" fill-opacity="0"/><path d="M672.04 715.17h8.02m8.03 0h8m8.04 0h8.02m8.03 0h8m8.04 0h8.02m8.03 0h8m8.04 0h8.02m8.03 0h8m8.04 0h8.02m8.03 0h8m8.04 0h8.02m8.03 0h8m8.04 0h8.02m8.03 0h8m8.04 0h8.02m8.02 0h8.03m8.03 0h8.03m8.02 0h8.03m8.03 0h8.03m8.02 0H985m8.03 0h8.03m8.02 0h8.03m8.03 0h8.03m8.02 0h8.03m8.03 0h8.03m8.02 0h8.03m8.03 0h8.03m8.02 0h8.03m8.03 0h8.03m8.02 0h8.03m8.03 0h8.03m8.02 0h8.03m8.03 0h8.03m8.02 0h8.03m8.03 0h8.03m8.02 0h8.03m8.03 0h8.03m8.02 0h8.03m8.03 0h8.03m8.02 0h8.03m8.03 0h8.03m8.02 0h8.03m8.03 0h8.03m8.02 0h8.03m8.03 0h8.03m8.02 0h8.02m8.03 0h8.02m8.03 0h8.02m8.03 0h8.02m8.03 0h8.02m8.03 0h8.02m8.03 0h8.02m8.03 0h8.02m8.03 0h8.02m8.03 0h8.02m8.03 0h8.02m8.03 0h8.02m8.03 0h8.02m8.03 0h8.02m8.03 0h8.02m8.03 0h8.02m8.03 0h8.02m8.03 0h8.02m8.03 0h8.02m8.03 0h8.02m8.03 0h8.02m8.03 0h8.02m8.03 0h8.02m8.03 0h8.02m8.03 0h8.02m8.03 0h8.02m8.03 0h8.02m8.03 0h8.02m8.03 0h8.02m8.03 0h8.02m8.02 0h8.03m8.02 0h8.03m8.02 0h8.03m8.02 0h8.03m8.02 0h8.03m8.02 0h8.03m8.02 0h8.03m8.02 0h8.03m8.02 0h8.03m8.02 0h4.02v4.03m0 8.06v8.07m0 8.06v8.05m0 8.07v8.06m0 8.06v8.07m0 8.07v8.06m0 8.07v8.06m0 8.06v8.07m0 8.05v8.06m0 8.08v8.06m0 8.06v8.07m0 8.06v8.07m0 8.06v8.06m0 8.07v8.05m0 8.06V945m0 8.06v8.06m0 8.07v8.06m0 8.06v8.06m0 8.06v8.06m0 8.07v8.06m0 8.07v8.07m0 8.06v4.03h-4.02m-8.02 0h-8.03m-8.02 0h-8.03m-8.02 0h-8.03m-8.02 0h-8.03m-8.02 0h-8.03m-8.02 0h-8.03m-8.02 0h-8.03m-8.02 0h-8.03m-8.02 0h-8.03m-8.02 0h-8.02m-8.03 0h-8.02m-8.03 0h-8.02m-8.03 0h-8.02m-8.03 0h-8.02m-8.03 0h-8.02m-8.03 0h-8.02m-8.03 0h-8.02m-8.03 0h-8.02m-8.03 0h-8.02m-8.03 0h-8.02m-8.03 0h-8.02m-8.03 0h-8.02m-8.03 0h-8.02m-8.03 0h-8.02m-8.03 0h-8.02m-8.03 0h-8.02m-8.03 0h-8.02m-8.03 0h-8.02m-8.03 0h-8.02m-8.03 0h-8.02m-8.03 0h-8.02m-8.03 0h-8.02m-8.03 0h-8.02m-8.03 0h-8.02m-8.03 0h-8.02m-8.03 0h-8.02m-8.03 0h-8.02m-8.03 0h-8.02m-8.03 0h-8.02m-8.02 0h-8.03m-8.02 0h-8.02m-8.02 0h-8.03m-8.02 0h-8.02m-8.02 0h-8.03m-8.02 0H1298m-8.02 0h-8.03m-8.02 0h-8.02m-8.02 0h-8.03m-8.02 0h-8.02m-8.02 0h-8.03m-8.02 0h-8.02m-8.02 0h-8.03m-8.02 0h-8.02m-8.02 0h-8.03m-8.02 0h-8.02m-8.02 0h-8.03m-8.02 0h-8.02m-8.02 0h-8.03m-8.02 0h-8.02m-8.02 0h-8.03m-8.02 0h-8.02m-8.02 0h-8.03m-8.02 0h-8.02m-8.02 0h-8.03m-8.02 0H977m-8.02 0h-8.03m-8.02 0h-8.02m-8.02 0h-8.03m-8.02 0h-8.02m-8.02 0h-8.02m-8.03 0h-8m-8.04 0h-8.02m-8.03 0h-8m-8.04 0h-8.02m-8.03 0h-8m-8.04 0h-8.02m-8.03 0h-8m-8.04 0h-8.02m-8.03 0h-8m-8.04 0h-8.02m-8.03 0h-8m-8.04 0h-8.02m-8.03 0h-8m-8.04 0h-8.02m-8.03 0h-4v-4.03m0-8.06v-8.07m0-8.06v-8.05m0-8.07v-8.06m0-8.06v-8.07m0-8.07v-8.06m0-8.07v-8.06m0-8.06v-8.07m0-8.05v-8.06m0-8.08v-8.06m0-8.06v-8.07m0-8.06v-8.07m0-8.06v-8.06m0-8.07v-8.05m0-8.06V824m0-8.06v-8.06m0-8.07v-8.06m0-8.06v-8.06m0-8.06v-8.06m0-8.07v-8.06m0-8.07v-8.07m0-8.06v-4.03h4" stroke="#147eba" stroke-width="2" fill="none"/><use xlink:href="#w" transform="matrix(1,0,0,1,660,735.1671296991296) translate(569.875 14.4)"/><use xlink:href="#x" transform="matrix(1,0,0,1,660,735.1671296991296) translate(659.275 14.4)"/><use xlink:href="#z" transform="matrix(1,0,0,1,660,735.1671296991296) translate(710.225 14.4)"/><path d="M1161.33 298.12h364.65v231.72h-364.65z" fill="#147eba" fill-opacity=".13"/><path d="M1161.33 298.12h56v56h-56v-56z" stroke="#fff" stroke-opacity="0" fill="#147eba"/><path d="M1204.72 320.3c-.16-.17-.35-.25-.57-.25H1199v-5.58c-.03-2.54-.96-4.7-2.83-6.4-1.9-1.84-4.15-2.75-6.77-2.75-2.66 0-4.9.83-6.8 2.62-1.9 1.7-2.88 3.87-2.9 6.4V320h-5.16c-.25 0-.43.1-.6.25-.14.17-.2.34-.2.6v25.28c0 .42.34.8.8.8h29.58c.47 0 .8-.38.8-.8v-25.3c0-.2-.05-.37-.2-.53zm-23.47-5.9c.03-2.13.8-3.88 2.37-5.3 1.63-1.5 3.53-2.2 5.74-2.2 2.22 0 4.12.75 5.7 2.25 1.54 1.4 2.32 3.2 2.32 5.32v5.58h-16.16zm22.1 30.94h-28.03v-23.7h28.02z" stroke="#fff" stroke-opacity="0" fill="#fff"/><path d="M1188.53 335.43v6.24h1.6v-6.23c2.13-.4 3.63-2.2 3.64-4.35 0-2.44-1.98-4.42-4.42-4.44-2.2-.03-4.05 1.5-4.43 3.68-.4 2.4 1.2 4.68 3.6 5.1zm.82-7.16c.78 0 1.44.27 2 .82.55.55.82 1.2.8 2 .03 1.54-1.2 2.8-2.74 2.8h-.05c-1.56.13-2.92-1.04-3.04-2.6-.1-1.56 1.06-2.93 2.62-3.03.15-.02.28-.02.43 0z" stroke="#fff" stroke-opacity="0" fill="#fff"/><use xlink:href="#A" transform="matrix(1,0,0,1,1232.3333333333335,318.11960216359034) translate(0 14.222222222222223)"/><path d="M721.35 295.33h360v234.5h-360z" fill="#248814" fill-opacity=".13"/><path d="M721.35 295.33h56v56h-56v-56z" stroke="#fff" stroke-opacity="0" fill="#248814"/><path d="M764.74 317.5c-.16-.16-.35-.24-.57-.24h-5.14v-5.57c-.03-2.55-.97-4.72-2.84-6.42-1.92-1.83-4.16-2.75-6.78-2.75-2.66 0-4.9.84-6.8 2.62-1.9 1.7-2.88 3.87-2.9 6.4v5.67h-5.15c-.25 0-.44.08-.6.25-.15.16-.22.33-.22.58v25.3c0 .4.35.78.82.78h29.57c.47 0 .8-.37.8-.8v-25.28c0-.2-.05-.37-.2-.54zm-23.47-5.9c.03-2.12.8-3.87 2.37-5.28 1.63-1.5 3.53-2.2 5.75-2.2 2.2 0 4.1.74 5.7 2.24 1.52 1.4 2.3 3.2 2.3 5.33v5.56h-16.16zm22.1 30.95h-28.02v-23.7h28z" stroke="#fff" stroke-opacity="0" fill="#fff"/><path d="M748.55 332.64v6.25h1.6v-6.24c2.13-.4 3.63-2.2 3.64-4.36 0-2.43-2-4.4-4.43-4.42-2.2-.03-4.05 1.5-4.42 3.67-.4 2.4 1.2 4.7 3.6 5.1zm.82-7.16c.78 0 1.44.27 2 .83.55.56.82 1.22.8 2 .03 1.55-1.2 2.8-2.74 2.83h-.06c-1.56.12-2.92-1.05-3.04-2.62-.1-1.55 1.06-2.9 2.6-3.02h.44z" stroke="#fff" stroke-opacity="0" fill="#fff"/><use xlink:href="#B" transform="matrix(1,0,0,1,792.3542144090015,315.33333333333326) translate(0 14.222222222222223)"/><path d="M713.17 755.33h364.65v258.34H713.17z" fill="#248814" fill-opacity=".13"/><path d="M713.17 755.33h56v56h-56v-56z" stroke="#fff" stroke-opacity="0" fill="#248814"/><path d="M756.55 777.5c-.15-.16-.34-.24-.56-.24h-5.16v-5.57c-.03-2.55-.97-4.72-2.84-6.42-1.9-1.83-4.15-2.75-6.77-2.75-2.65 0-4.9.84-6.8 2.62-1.9 1.7-2.87 3.87-2.9 6.4v5.67h-5.15c-.25 0-.44.08-.6.25-.15.16-.2.33-.2.58v25.3c0 .4.33.78.8.78h29.58c.47 0 .8-.37.8-.8v-25.28c0-.2-.05-.37-.2-.54zm-23.46-5.9c.02-2.12.8-3.87 2.36-5.28 1.62-1.5 3.53-2.2 5.74-2.2 2.22 0 4.12.74 5.7 2.24 1.54 1.4 2.32 3.2 2.32 5.33v5.56h-16.16zm22.08 30.95h-28.02v-23.7h28.02z" stroke="#fff" stroke-opacity="0" fill="#fff"/><path d="M740.37 792.64v6.25h1.6v-6.24c2.13-.4 3.62-2.2 3.63-4.36 0-2.43-1.97-4.4-4.4-4.42-2.2-.03-4.07 1.5-4.44 3.67-.4 2.4 1.2 4.7 3.6 5.1zm.82-7.16c.77 0 1.43.27 2 .83.53.56.8 1.22.8 2 .02 1.55-1.2 2.8-2.75 2.83h-.06c-1.57.12-2.93-1.05-3.05-2.62-.12-1.55 1.05-2.9 2.6-3.02h.44z" stroke="#fff" stroke-opacity="0" fill="#fff"/><use xlink:href="#C" transform="matrix(1,0,0,1,784.1695929271759,775.3333333333333) translate(0 14.222222222222223)"/><path d="M1161.33 755.33h364.65v260h-364.65z" fill="#147eba" fill-opacity=".13"/><path d="M1161.33 755.33h56v56h-56v-56z" stroke="#fff" stroke-opacity="0" fill="#147eba"/><path d="M1204.72 777.5c-.16-.16-.35-.24-.57-.24H1199v-5.57c-.03-2.55-.96-4.72-2.83-6.42-1.9-1.83-4.15-2.75-6.77-2.75-2.66 0-4.9.84-6.8 2.62-1.9 1.7-2.88 3.87-2.9 6.4v5.67h-5.16c-.25 0-.43.08-.6.25-.14.16-.2.33-.2.58v25.3c0 .4.34.78.8.78h29.58c.47 0 .8-.37.8-.8v-25.28c0-.2-.05-.37-.2-.54zm-23.47-5.9c.03-2.12.8-3.87 2.37-5.28 1.63-1.5 3.53-2.2 5.74-2.2 2.22 0 4.12.74 5.7 2.24 1.54 1.4 2.32 3.2 2.32 5.33v5.56h-16.16zm22.1 30.95h-28.03v-23.7h28.02z" stroke="#fff" stroke-opacity="0" fill="#fff"/><path d="M1188.53 792.64v6.25h1.6v-6.24c2.13-.4 3.63-2.2 3.64-4.36 0-2.43-1.98-4.4-4.42-4.42-2.2-.03-4.05 1.5-4.43 3.67-.4 2.4 1.2 4.7 3.6 5.1zm.82-7.16c.78 0 1.44.27 2 .83.55.56.82 1.22.8 2 .03 1.55-1.2 2.8-2.74 2.83h-.05c-1.56.12-2.92-1.05-3.04-2.62-.1-1.55 1.06-2.9 2.62-3.02h.43z" stroke="#fff" stroke-opacity="0" fill="#fff"/><use xlink:href="#D" transform="matrix(1,0,0,1,1232.3333333333335,775.3333333333333) translate(0 14.222222222222223)"/><path d="M1600.3 296.73h360v231.72h-360z" fill="#147eba" fill-opacity=".13"/><path d="M1600.3 296.73h56v56h-56v-56z" stroke="#fff" stroke-opacity="0" fill="#147eba"/><path d="M1643.7 318.9c-.17-.16-.36-.25-.58-.25h-5.14v-5.57c-.04-2.54-.97-4.7-2.84-6.4-1.9-1.84-4.15-2.75-6.77-2.75-2.66 0-4.9.83-6.8 2.62-1.9 1.7-2.88 3.87-2.9 6.4v5.66h-5.16c-.24 0-.42.1-.58.26-.15.17-.22.33-.22.58v25.3c0 .4.35.8.8.8h29.6c.46 0 .8-.4.8-.8v-25.3c0-.2-.06-.37-.2-.54zm-23.48-5.9c.03-2.13.8-3.87 2.37-5.3 1.62-1.5 3.52-2.2 5.73-2.2 2.22 0 4.12.76 5.7 2.25 1.54 1.42 2.32 3.2 2.32 5.33v5.57h-16.16zm22.1 30.95h-28.03v-23.72h28z" stroke="#fff" stroke-opacity="0" fill="#fff"/><path d="M1627.5 334.03v6.25h1.6v-6.23c2.13-.4 3.63-2.2 3.63-4.35 0-2.43-1.97-4.42-4.4-4.43-2.2-.03-4.06 1.5-4.44 3.68-.42 2.4 1.2 4.68 3.6 5.08zm.82-7.15c.78 0 1.44.27 2 .82.55.56.82 1.22.8 2 .03 1.54-1.2 2.8-2.74 2.82h-.06c-1.56.12-2.92-1.05-3.04-2.6-.1-1.57 1.05-2.94 2.6-3.04.16-.02.3-.02.44 0z" stroke="#fff" stroke-opacity="0" fill="#fff"/><use xlink:href="#E" transform="matrix(1,0,0,1,1671.302964088322,316.7264677484616) translate(0 14.222222222222223)"/><path d="M1600.3 755.97h360v257.7h-360z" fill="#147eba" fill-opacity=".13"/><path d="M1600.3 755.97h56v56h-56v-56z" stroke="#fff" stroke-opacity="0" fill="#147eba"/><path d="M1643.7 778.15c-.17-.17-.36-.25-.58-.25h-5.14v-5.58c-.04-2.54-.97-4.7-2.84-6.4-1.9-1.84-4.15-2.75-6.77-2.75-2.66 0-4.9.83-6.8 2.62-1.9 1.7-2.88 3.86-2.9 6.4v5.65h-5.16c-.24 0-.42.1-.58.25-.15.17-.22.34-.22.6v25.28c0 .42.35.8.8.8h29.6c.46 0 .8-.38.8-.8v-25.3c0-.2-.06-.37-.2-.53zm-23.48-5.9c.03-2.13.8-3.88 2.37-5.3 1.62-1.5 3.52-2.2 5.73-2.2 2.22 0 4.12.75 5.7 2.25 1.54 1.4 2.32 3.2 2.32 5.32v5.58h-16.16zm22.1 30.94h-28.03v-23.72h28z" stroke="#fff" stroke-opacity="0" fill="#fff"/><path d="M1627.5 793.28v6.24h1.6v-6.23c2.13-.4 3.63-2.2 3.63-4.36 0-2.43-1.97-4.4-4.4-4.43-2.2-.02-4.06 1.5-4.44 3.7-.42 2.4 1.2 4.67 3.6 5.08zm.82-7.16c.78 0 1.44.27 2 .82.55.56.82 1.22.8 2 .03 1.55-1.2 2.8-2.74 2.82h-.06c-1.56.12-2.92-1.05-3.04-2.6-.1-1.57 1.05-2.94 2.6-3.04.16-.02.3-.02.44 0z" stroke="#fff" stroke-opacity="0" fill="#fff"/><use xlink:href="#F" transform="matrix(1,0,0,1,1671.302964088322,775.9700668674452) translate(0 14.222222222222223)"/><use xlink:href="#G" transform="matrix(1,0,0,1,1671.302964088322,775.9700668674452) translate(83.90123456790124 14.222222222222223)"/><path d="M891.03 439.22l-18.92 32.64 18.93 32.64h37.84l18.92-32.64-18.93-32.64z" fill="#fff"/><path d="M927.78 441.1l17.83 30.76-17.82 30.75h-35.66l-17.83-30.74 17.82-30.76zm-37.84-3.75l-20 34.5 20 34.5h40.03l19.96-34.43v-.1l-19.97-34.47z" fill="#9f53a0"/><path d="M922.05 447.3c.36 0 .66.1.92.37.25.26.38.56.38.92v9.44H896.3v-9.45c0-.37.13-.67.4-.93.24-.26.55-.38.9-.38zm1.3 13.12v34.55c0 .36-.13.66-.38.92-.26.24-.56.37-.92.37H897.6c-.35 0-.66-.13-.9-.38-.27-.27-.4-.57-.4-.93v-34.55zM897.6 444.9c-1.02 0-1.88.37-2.6 1.1-.72.7-1.1 1.57-1.1 2.6v46.37c0 1 .38 1.88 1.1 2.6.72.72 1.58 1.08 2.6 1.08h24.45c1.02 0 1.9-.36 2.6-1.08.73-.72 1.1-1.6 1.1-2.6V448.6c0-1.03-.37-1.9-1.1-2.6-.7-.73-1.58-1.1-2.6-1.1z" fill="#9f53a0"/><path d="M908.7 464.42c-.74.27-1.32.75-1.7 1.43-.4.68-.53 1.42-.4 2.2.14.78.52 1.4 1.13 1.92.6.5 1.3.77 2.1.77s1.5-.27 2.1-.77c.6-.5.98-1.14 1.12-1.92.13-.78 0-1.52-.4-2.2-.38-.68-.96-1.16-1.7-1.43v3.16h-2.25zM909.95 476.64c.73 0 1.35.27 1.86.78.53.5.8 1.13.8 1.86v2.04h-5.3v-2.04c0-.73.27-1.35.78-1.86.5-.5 1.14-.78 1.87-.78zm0 7.45c.14 0 .3.15.44.3.13.14.13.28.13.43V486.6c0 .3-.28.6-.58.6-.44 0-.74-.3-.74-.6v-1.75c0-.45.3-.74.75-.74zm0-8.77c-2.2 0-3.97 1.9-3.97 3.95v2.04h-1.17c-.14 0-.14 0-.14.15v8.32c0 .14 0 .28.15.28h10.14c.08 0 .15-.03.2-.1.06-.04.08-.1.1-.2v-8.3c0-.16-.15-.16-.3-.16h-1.03v-2.04c0-2.04-1.75-3.95-3.95-3.95z" fill="#9f53a0"/><path d="M1342.43 797.36L1323.5 830l18.93 32.63h37.84L1399.2 830l-18.93-32.64z" fill="#fff"/><path d="M1379.18 799.23L1397 830l-17.82 30.75h-35.66L1325.7 830l17.82-30.77zm-37.84-3.75l-20 34.5 20 34.5h40.03l19.96-34.43v-.1l-19.97-34.47z" fill="#9f53a0"/><path d="M1373.45 805.42c.36 0 .66.13.92.38.25.26.38.56.38.92v9.45h-27.05v-9.45c0-.36.13-.66.4-.92.24-.25.55-.38.9-.38zm1.3 13.13v34.55c0 .36-.13.66-.38.92-.26.26-.56.4-.92.4H1349c-.35 0-.66-.14-.9-.4-.27-.26-.4-.56-.4-.92v-34.55zm-25.74-15.5c-1.02 0-1.88.35-2.6 1.07-.72.72-1.1 1.6-1.1 2.6v46.38c0 1.02.38 1.9 1.1 2.6.72.72 1.58 1.1 2.6 1.1h24.45c1.02 0 1.9-.38 2.6-1.1.73-.7 1.1-1.58 1.1-2.6v-46.38c0-1-.37-1.88-1.1-2.6-.7-.72-1.58-1.08-2.6-1.08z" fill="#9f53a0"/><path d="M1360.1 822.56c-.74.27-1.32.74-1.7 1.42-.4.7-.53 1.42-.4 2.2.14.78.52 1.4 1.13 1.92.6.5 1.3.77 2.1.77s1.5-.26 2.1-.77c.6-.5.98-1.14 1.12-1.92.13-.78 0-1.5-.4-2.2-.38-.68-.96-1.15-1.7-1.42v3.15h-2.25zM1361.35 834.78c.73 0 1.35.26 1.86.77.53.5.8 1.14.8 1.86v2.05h-5.3v-2.04c0-.7.27-1.34.78-1.85.5-.5 1.14-.77 1.87-.77zm0 7.45c.14 0 .3.15.44.3.13.14.13.28.13.43v1.75c0 .3-.28.6-.58.6-.44 0-.74-.3-.74-.6v-1.74c0-.44.3-.73.75-.73zm0-8.77c-2.2 0-3.97 1.9-3.97 3.95v2.05h-1.17c-.14 0-.14 0-.14.15v8.33c0 .14 0 .3.15.3h10.14c.08-.02.15-.05.2-.1.06-.06.08-.13.1-.2v-8.33c0-.15-.15-.15-.3-.15h-1.03v-2.04c0-2.03-1.75-3.94-3.95-3.94z" fill="#9f53a0"/><path d="M1342.43 439.22l-18.92 32.64 18.93 32.64h37.84l18.92-32.64-18.93-32.64z" fill="#fff"/><path d="M1379.18 441.1l17.83 30.76-17.82 30.75h-35.66l-17.83-30.74 17.82-30.76zm-37.84-3.75l-20 34.5 20 34.5h40.03l19.96-34.43v-.1l-19.97-34.47z" fill="#9f53a0"/><path d="M1373.45 447.3c.36 0 .66.1.92.37.25.26.38.56.38.92v9.44h-27.05v-9.45c0-.37.13-.67.4-.93.24-.26.55-.38.9-.38zm1.3 13.12v34.55c0 .36-.13.66-.38.92-.26.24-.56.37-.92.37H1349c-.35 0-.66-.13-.9-.38-.27-.27-.4-.57-.4-.93v-34.55zM1349 444.9c-1.02 0-1.88.37-2.6 1.1-.72.7-1.1 1.57-1.1 2.6v46.37c0 1 .38 1.88 1.1 2.6.72.72 1.58 1.08 2.6 1.08h24.45c1.02 0 1.9-.36 2.6-1.08.73-.72 1.1-1.6 1.1-2.6V448.6c0-1.03-.37-1.9-1.1-2.6-.7-.73-1.58-1.1-2.6-1.1z" fill="#9f53a0"/><path d="M1360.1 464.42c-.74.27-1.32.75-1.7 1.43-.4.68-.53 1.42-.4 2.2.14.78.52 1.4 1.13 1.92.6.5 1.3.77 2.1.77s1.5-.27 2.1-.77c.6-.5.98-1.14 1.12-1.92.13-.78 0-1.52-.4-2.2-.38-.68-.96-1.16-1.7-1.43v3.16h-2.25zM1361.35 476.64c.73 0 1.35.27 1.86.78.53.5.8 1.13.8 1.86v2.04h-5.3v-2.04c0-.73.27-1.35.78-1.86.5-.5 1.14-.78 1.87-.78zm0 7.45c.14 0 .3.15.44.3.13.14.13.28.13.43V486.6c0 .3-.28.6-.58.6-.44 0-.74-.3-.74-.6v-1.75c0-.45.3-.74.75-.74zm0-8.77c-2.2 0-3.97 1.9-3.97 3.95v2.04h-1.17c-.14 0-.14 0-.14.15v8.32c0 .14 0 .28.15.28h10.14c.08 0 .15-.03.2-.1.06-.04.08-.1.1-.2v-8.3c0-.16-.15-.16-.3-.16h-1.03v-2.04c0-2.04-1.75-3.95-3.95-3.95z" fill="#9f53a0"/><path d="M891.03 797.36L872.1 830l18.93 32.63h37.84L947.8 830l-18.93-32.64z" fill="#fff"/><path d="M927.78 799.23L945.6 830l-17.82 30.75h-35.66L874.3 830l17.82-30.77zm-37.84-3.75l-20 34.5 20 34.5h40.03l19.96-34.43v-.1l-19.97-34.47z" fill="#9f53a0"/><path d="M922.05 805.42c.36 0 .66.13.92.38.25.26.38.56.38.92v9.45H896.3v-9.45c0-.36.13-.66.4-.92.24-.25.55-.38.9-.38zm1.3 13.13v34.55c0 .36-.13.66-.38.92-.26.26-.56.4-.92.4H897.6c-.35 0-.66-.14-.9-.4-.27-.26-.4-.56-.4-.92v-34.55zm-25.74-15.5c-1.02 0-1.88.35-2.6 1.07-.72.72-1.1 1.6-1.1 2.6v46.38c0 1.02.38 1.9 1.1 2.6.72.72 1.58 1.1 2.6 1.1h24.45c1.02 0 1.9-.38 2.6-1.1.73-.7 1.1-1.58 1.1-2.6v-46.38c0-1-.37-1.88-1.1-2.6-.7-.72-1.58-1.08-2.6-1.08z" fill="#9f53a0"/><path d="M908.7 822.56c-.74.27-1.32.74-1.7 1.42-.4.7-.53 1.42-.4 2.2.14.78.52 1.4 1.13 1.92.6.5 1.3.77 2.1.77s1.5-.26 2.1-.77c.6-.5.98-1.14 1.12-1.92.13-.78 0-1.5-.4-2.2-.38-.68-.96-1.15-1.7-1.42v3.15h-2.25zM909.95 834.78c.73 0 1.35.26 1.86.77.53.5.8 1.14.8 1.86v2.05h-5.3v-2.04c0-.7.27-1.34.78-1.85.5-.5 1.14-.77 1.87-.77zm0 7.45c.14 0 .3.15.44.3.13.14.13.28.13.43v1.75c0 .3-.28.6-.58.6-.44 0-.74-.3-.74-.6v-1.74c0-.44.3-.73.75-.73zm0-8.77c-2.2 0-3.97 1.9-3.97 3.95v2.05h-1.17c-.14 0-.14 0-.14.15v8.33c0 .14 0 .3.15.3h10.14c.08-.02.15-.05.2-.1.06-.06.08-.13.1-.2v-8.33c0-.15-.15-.15-.3-.15h-1.03v-2.04c0-2.03-1.75-3.94-3.95-3.94z" fill="#9f53a0"/><path d="M1814.9 804.5c0 3.38-10.74 6.2-24 6.2-13.24 0-24-2.77-24-6.2v-2.8l24-3.4 24 3.4zM1790.9 815.68l-24 34.77v2.8c0 3.42 10.76 6.22 24 6.22 13.25 0 24-2.76 24-6.2v-2.82z" fill="#19486f"/><path d="M1790.9 795.48c13.25 0 24 2.78 24 6.2 0 3.45-10.75 6.23-24 6.23-13.24 0-24-2.77-24-6.2 0-3.44 10.76-6.22 24-6.22z" fill="#2e73b8"/><path d="M1790.9 812.86c-13.24 0-24-2.75-24-6.2v43.8c0 3.4 10.76 6.2 24 6.2 13.25 0 24-2.8 24-6.2v-43.8c0 3.45-10.75 6.2-24 6.2z" fill="#2e73b8"/><path d="M1779.38 820.96h14.1c4.9 0 9.7 2.25 9.7 8 .18 3.18-1.54 5.94-4.37 7.14v.1c2.94.73 3.8 4.1 4.05 6.76.07 1.2.2 5.38 1.15 6.43h-7.1c-.6-.98-.73-3.77-.8-4.53-.2-2.88-.64-5.8-4.04-5.8h-5.5v10.35h-7.18zm7.22 12.35h6.05c.25.04.47.04.72 0 1.62-.2 2.78-1.7 2.58-3.38 0-2.1-1.62-3.07-3.64-3.07h-5.7z" fill="#fff"/><path d="M681.35 586.73c-22.08 0-40 17.92-40 40s17.92 40 40 40 40-17.92 40-40-17.92-40-40-40zm0 76.8c-20.32 0-36.8-16.48-36.8-36.8 0-20.32 16.48-36.8 36.8-36.8 20.32 0 36.8 16.48 36.8 36.8 0 20.32-16.48 36.8-36.8 36.8z" stroke="#fff" stroke-opacity="0" stroke-width="3" fill="#693cc5"/><path d="M666.96 636.33h-16c-.9 0-1.6-.7-1.6-1.6v-16c0-.9.7-1.6 1.6-1.6h16c.88 0 1.6.7 1.6 1.6v16c0 .9-.72 1.6-1.6 1.6zm-14.4-3.2h12.8v-12.8h-12.8zM703.75 615.53h-9.6c-.88 0-1.6-.7-1.6-1.6v-9.6c0-.88.72-1.6 1.6-1.6h9.6c.9 0 1.6.72 1.6 1.6v9.6c0 .9-.7 1.6-1.6 1.6zm-8-3.2h6.4v-6.4h-6.4zM703.75 633.13h-9.6c-.88 0-1.6-.7-1.6-1.6v-9.6c0-.88.72-1.6 1.6-1.6h9.6c.9 0 1.6.72 1.6 1.6v9.6c0 .9-.7 1.6-1.6 1.6zm-8-3.2h6.4v-6.4h-6.4zM703.75 650.73h-9.6c-.88 0-1.6-.7-1.6-1.6v-9.6c0-.88.72-1.6 1.6-1.6h9.6c.9 0 1.6.72 1.6 1.6v9.6c0 .9-.7 1.6-1.6 1.6zm-8-3.2h6.4v-6.4h-6.4zM690.48 627.87l-5.38 5.38-2.26-2.26 2.65-2.66h-13.75v-3.2h13.74l-2.66-2.67 2.26-2.25 5.38 5.38c.64.63.64 1.63.02 2.27h-.02zM689.6 609.95l-1.97 7.35-3.07-.84 1-3.8-14.18 7.48-1.48-2.8 13.85-7.33-3.44-.87.84-3.2 7.36 2c.85.2 1.36 1.1 1.13 1.94 0 .03 0 .06-.02.08zM688.5 645.5l-7.35 2.03-.85-3.2 3.44-.94-13.86-7.33 1.5-2.8 14.18 7.48-1-3.75 3.08-.83 1.98 7.35c.24.84-.27 1.73-1.13 1.96z" stroke="#fff" stroke-opacity="0" stroke-width="3" fill="#693cc5"/><use xlink:href="#H" transform="matrix(1,0,0,1,611.3542144090015,675.7333333333333) translate(16.275 14.4)"/><use xlink:href="#I" transform="matrix(1,0,0,1,611.3542144090015,675.7333333333333) translate(57.87499999999999 14.4)"/><use xlink:href="#J" transform="matrix(1,0,0,1,611.3542144090015,675.7333333333333) translate(12.049999999999997 36)"/><use xlink:href="#K" transform="matrix(1,0,0,1,611.3542144090015,675.7333333333333) translate(57.05 36)"/><path d="M1814.9 447.48c0 3.63-10.74 6.65-24 6.65-13.24 0-24-2.97-24-6.65v-3l24-3.63 24 3.63zM1790.9 459.46l-24 37.22v3c0 3.66 10.76 6.66 24 6.66 13.25 0 24-2.95 24-6.66v-3z" fill="#19486f"/><path d="M1790.9 437.83c13.25 0 24 2.98 24 6.66 0 3.66-10.75 6.64-24 6.64-13.24 0-24-2.98-24-6.65 0-3.7 10.76-6.67 24-6.67z" fill="#2e73b8"/><path d="M1790.9 456.44c-13.24 0-24-2.94-24-6.64v46.9c0 3.64 10.76 6.64 24 6.64 13.25 0 24-3 24-6.64v-46.9c0 3.7-10.75 6.64-24 6.64z" fill="#2e73b8"/><path d="M1775.57 464.9h10.54l4.8 20.16 4.74-20.17h10.66v30.22h-6.8v-22.97h-.08l-5.78 22.97h-5.5l-5.78-22.97h-.06v22.97h-6.73z" fill="#fff"/><path d="M1131.33 586.73c-22.08 0-40 17.92-40 40s17.92 40 40 40 40-17.92 40-40-17.92-40-40-40zm0 76.8c-20.32 0-36.8-16.48-36.8-36.8 0-20.32 16.48-36.8 36.8-36.8 20.32 0 36.8 16.48 36.8 36.8 0 20.32-16.48 36.8-36.8 36.8z" stroke="#fff" stroke-opacity="0" stroke-width="3" fill="#693cc5"/><path d="M1116.94 636.33h-16c-.9 0-1.6-.7-1.6-1.6v-16c0-.9.7-1.6 1.6-1.6h16c.88 0 1.6.7 1.6 1.6v16c0 .9-.72 1.6-1.6 1.6zm-14.4-3.2h12.8v-12.8h-12.8zM1153.73 615.53h-9.6c-.88 0-1.6-.7-1.6-1.6v-9.6c0-.88.72-1.6 1.6-1.6h9.6c.9 0 1.6.72 1.6 1.6v9.6c0 .9-.7 1.6-1.6 1.6zm-8-3.2h6.4v-6.4h-6.4zM1153.73 633.13h-9.6c-.88 0-1.6-.7-1.6-1.6v-9.6c0-.88.72-1.6 1.6-1.6h9.6c.9 0 1.6.72 1.6 1.6v9.6c0 .9-.7 1.6-1.6 1.6zm-8-3.2h6.4v-6.4h-6.4zM1153.73 650.73h-9.6c-.88 0-1.6-.7-1.6-1.6v-9.6c0-.88.72-1.6 1.6-1.6h9.6c.9 0 1.6.72 1.6 1.6v9.6c0 .9-.7 1.6-1.6 1.6zm-8-3.2h6.4v-6.4h-6.4zM1140.46 627.87l-5.38 5.38-2.26-2.26 2.65-2.66h-13.74v-3.2h13.74l-2.65-2.67 2.26-2.25 5.38 5.38c.64.63.64 1.63.02 2.27h-.02zM1139.6 609.95l-2 7.35-3.06-.84 1-3.8-14.18 7.48-1.48-2.8 13.85-7.33-3.44-.87.82-3.2 7.36 2c.85.2 1.36 1.1 1.13 1.94v.08zM1138.47 645.5l-7.34 2.03-.85-3.2 3.44-.94-13.86-7.33 1.5-2.8 14.18 7.48-1-3.75 3.08-.83 1.98 7.35c.24.84-.27 1.73-1.13 1.96z" stroke="#fff" stroke-opacity="0" stroke-width="3" fill="#693cc5"/><use xlink:href="#L" transform="matrix(1,0,0,1,1061.3333333333337,675.7333333333333) translate(18.574999999999996 14.4)"/><use xlink:href="#I" transform="matrix(1,0,0,1,1061.3333333333337,675.7333333333333) translate(55.574999999999996 14.4)"/><use xlink:href="#J" transform="matrix(1,0,0,1,1061.3333333333337,675.7333333333333) translate(12.049999999999997 36)"/><use xlink:href="#K" transform="matrix(1,0,0,1,1061.3333333333337,675.7333333333333) translate(57.05 36)"/><path d="M1288.8 338.8h121.4v57.08h-121.4z" stroke="#000" stroke-opacity="0" stroke-width="2" fill="#fff" fill-opacity="0"/><g><use xlink:href="#M" transform="matrix(1,0,0,1,1293.7939255972697,343.79040453837706) translate(11.555555555555564 26.22222222222222)"/></g><path d="M838.12 920.07h121.4v57.1h-121.4z" stroke="#000" stroke-opacity="0" stroke-width="2" fill="#fff" fill-opacity="0"/><g><use xlink:href="#N" transform="matrix(1,0,0,1,843.1196040475415,925.0716929141877) translate(11.555555555555564 26.22222222222222)"/></g><path d="M1278.18 896.57c0-11.65 9.44-21.1 21.1-21.1h108.47c11.65 0 21.1 9.45 21.1 21.1 0 11.65-9.45 21.1-21.1 21.1h-108.48c-11.65 0-21.1-9.45-21.1-21.1z" stroke="#000" stroke-opacity="0" stroke-width="2" fill="#fff" fill-opacity="0"/><g><use xlink:href="#i" transform="matrix(1,0,0,1,1283.1796627468586,880.4803254749356) translate(17.25 16)"/><use xlink:href="#e" transform="matrix(1,0,0,1,1283.1796627468586,880.4803254749356) translate(61.52777777777778 16)"/><use xlink:href="#f" transform="matrix(1,0,0,1,1283.1796627468586,880.4803254749356) translate(55.398148148148145 34.04444444444445)"/></g><path d="M1292.8 913.23h121.42v57.1h-121.4z" stroke="#000" stroke-opacity="0" stroke-width="2" fill="#fff" fill-opacity="0"/><g><use xlink:href="#O" transform="matrix(1,0,0,1,1297.8098479379705,918.2322702442129) translate(11.555555555555564 26.22222222222222)"/></g><path d="M1730.2 355.33h121.4v57.1h-121.4z" stroke="#000" stroke-opacity="0" stroke-width="2" fill="#fff" fill-opacity="0"/><g><use xlink:href="#P" transform="matrix(1,0,0,1,1735.206567840166,360.33333333333326) translate(11.555555555555564 26.22222222222222)"/></g><path d="M1730.2 906.66h121.4v57.1h-121.4z" stroke="#000" stroke-opacity="0" stroke-width="2" fill="#fff" fill-opacity="0"/><g><use xlink:href="#Q" transform="matrix(1,0,0,1,1735.206567840166,911.6630603534395) translate(11.555555555555564 26.22222222222222)"/></g><path d="M363 675.8h-78.3c-13.57 0-23.93-9.1-24.7-21.57v-1.7c-.38-10.8 6.27-20.03 16.63-23.03v-1.7-1.3c.9-12.98 8.32-23.52 20.1-28.87 13.17-5.68 27.62-2.92 37.73 7.3 3.46 3.32 5.76 6.65 7.68 10.86 2.8-2.12 5.88-3.17 9.46-3.17 7.17 0 14.72 5.1 16.25 16.38 13.05 3.25 20.1 11.68 20.1 23.77-.14 14.83-8.97 23.02-24.96 23.02zm-52.72-75.5c-4.22 0-7.8.74-11.64 2.36-10.1 4.7-16.25 14.02-16.63 25.13 0 1.2 0 2.26.26 3.4.13 1.38-.77 2.67-2.05 3-5.5 1.38-14.83 5.43-14.83 18.32v1.46c.52 9.5 8.7 16.3 19.32 16.3H363c13.04 0 19.3-5.76 19.3-17.6 0-10.13-5.88-16.54-17.65-18.9-1.28-.23-2.04-1.28-2.17-2.5-.5-9.9-6.27-13.38-10.88-13.38-3.32.08-6.14 1.54-8.18 4.22-.9 1.13-2.56 1.38-3.84.48-.4-.32-.64-.73-.9-1.2-1.66-4.96-4.1-8.85-7.93-12.58-5.63-5.68-12.4-8.5-20.47-8.5z" stroke="#fff" stroke-opacity="0" fill="#232f3e"/><path d="M309.37 662.93l-3.74-3.95c9.4-9 23.9-9.3 33.7-.73l-3.57 4.08c-7.68-6.7-19-6.43-26.4.6z" stroke="#fff" stroke-opacity="0" fill="#232f3e"/><path d="M302.1 655.22l-3.78-3.95c13.44-12.78 34.08-13.2 48-.98l-3.6 4.08c-11.8-10.32-29.23-9.96-40.6.84z" stroke="#fff" stroke-opacity="0" fill="#232f3e"/><path d="M294.7 647.57l-3.73-4.03c17.4-16.64 44.18-17.25 62.32-1.42l-3.57 4.15c-16-13.97-39.7-13.4-55.02 1.3z" stroke="#fff" stroke-opacity="0" fill="#232f3e"/><g><use xlink:href="#R" transform="matrix(1,0,0,1,230,684.7928709030783) translate(63.525 14.4)"/></g><g filter="url(#S)"><path d="M279.97 837.75c0-1.1.9-2 2-2h84c1.1 0 2 .9 2 2v124c0 1.1-.9 2-2 2h-84c-1.1 0-2-.9-2-2z" fill="#fff"/><path d="M335.97 876.75c2.5 0 4.6-.88 6.36-2.63 1.76-1.76 2.64-3.88 2.64-6.37 0-2.48-.88-4.6-2.64-6.36-1.75-1.76-3.87-2.65-6.36-2.65-2.5 0-4.6.9-6.36 2.64-1.75 1.75-2.63 3.87-2.63 6.35 0 2.5.88 4.6 2.64 6.37 1.76 1.75 3.88 2.63 6.37 2.63zm-24 0c2.5 0 4.6-.88 6.36-2.63 1.76-1.76 2.64-3.88 2.64-6.37 0-2.48-.88-4.6-2.64-6.36-1.75-1.76-3.87-2.65-6.36-2.65-2.5 0-4.6.9-6.36 2.64-1.75 1.75-2.63 3.87-2.63 6.35 0 2.5.88 4.6 2.64 6.37 1.76 1.75 3.88 2.63 6.37 2.63zm0 6c-7 0-21 3.5-21 10.5v7.5h42v-7.5c0-7-14-10.5-21-10.5zm24 0c-.87 0-1.86.06-2.9.15 3.47 2.52 5.9 5.9 5.9 10.35v7.5h18v-7.5c0-7-14-10.5-21-10.5zm0 0" fill="#757575"/><use xlink:href="#T" transform="matrix(1,0,0,1,279.9696657386876,916.7530536514722) translate(27.0134736328125 28.05751953125)"/></g><path d="M319.97 734.25v100.5" stroke="#d6242d" stroke-width="2" fill="none"/><path d="M319.97 719l4.63 14.25h-9.27z" stroke="#d6242d" stroke-width="2" fill="#d6242d"/><path d="M320.97 835.75h-2v-1.02h2z" stroke="#d6242d" stroke-width=".05" fill="#d6242d"/><path d="M380.87 634.25h245.08M380.87 636.25h245.08" stroke="#59b4d9" fill="none"/><path d="M380.88 634.75h-1.03l-.36-.35-1.06-.65h2.44z" stroke="#59b4d9" stroke-width=".05" fill="#59b4d9"/><path stroke="#59b4d9" stroke-width=".05" fill="#59b4d9"/><path d="M640.7 635.25l-14.25 4.64v-9.28z" stroke="#59b4d9" fill="#59b4d9"/><defs><path d="M205 0l-28-72H64L36 0H1l101-248h38L239 0h-34zm-38-99l-47-123c-12 45-31 82-46 123h93" id="U"/><path d="M266 0h-40l-56-210L115 0H75L2-248h35L96-30l15-64 43-154h32l59 218 59-218h35" id="V"/><path d="M185-189c-5-48-123-54-124 2 14 75 158 14 163 119 3 78-121 87-175 55-17-10-28-26-33-46l33-7c5 56 141 63 141-1 0-78-155-14-162-118-5-82 145-84 179-34 5 7 8 16 11 25" id="W"/><g id="a"><use transform="matrix(0.05,0,0,0.05,0,0)" xlink:href="#U"/><use transform="matrix(0.05,0,0,0.05,11.35,0)" xlink:href="#V"/><use transform="matrix(0.05,0,0,0.05,28.299999999999997,0)" xlink:href="#W"/></g><path d="M212-179c-10-28-35-45-73-45-59 0-87 40-87 99 0 60 29 101 89 101 43 0 62-24 78-52l27 14C228-24 195 4 139 4 59 4 22-46 18-125c-6-104 99-153 187-111 19 9 31 26 39 46" id="X"/><path d="M24 0v-261h32V0H24" id="Y"/><path d="M100-194c62-1 85 37 85 99 1 63-27 99-86 99S16-35 15-95c0-66 28-99 85-99zM99-20c44 1 53-31 53-75 0-43-8-75-51-75s-53 32-53 75 10 74 51 75" id="Z"/><path d="M84 4C-5 8 30-112 23-190h32v120c0 31 7 50 39 49 72-2 45-101 50-169h31l1 190h-30c-1-10 1-25-2-33-11 22-28 36-60 37" id="aa"/><path d="M85-194c31 0 48 13 60 33l-1-100h32l1 261h-30c-2-10 0-23-3-31C134-8 116 4 85 4 32 4 16-35 15-94c0-66 23-100 70-100zm9 24c-40 0-46 34-46 75 0 40 6 74 45 74 42 0 51-32 51-76 0-42-9-74-50-73" id="ab"/><g id="b"><use transform="matrix(0.05,0,0,0.05,0,0)" xlink:href="#X"/><use transform="matrix(0.05,0,0,0.05,12.950000000000001,0)" xlink:href="#Y"/><use transform="matrix(0.05,0,0,0.05,16.900000000000002,0)" xlink:href="#Z"/><use transform="matrix(0.05,0,0,0.05,26.900000000000002,0)" xlink:href="#aa"/><use transform="matrix(0.05,0,0,0.05,36.900000000000006,0)" xlink:href="#ab"/></g><path fill="#333" d="M23 0v-37h61v-169l-59 37v-38l62-41h46v211h57V0H23" id="ac"/><path fill="#333" d="M101-251c68 0 84 54 84 127C185-50 166 4 99 4S15-52 14-124c-1-75 17-127 87-127zm-1 216c37-5 36-46 36-89s4-89-36-89c-39 0-36 45-36 89 0 43-3 85 36 89" id="ad"/><path fill="#333" d="M24 0v-54h51V0H24" id="ae"/><path fill="#333" d="M4 7l51-268h42L46 7H4" id="af"/><path fill="#333" d="M182-182c0 78-84 86-111 141h115V0H12c-6-101 99-100 120-180 1-22-12-31-33-32-23 0-32 14-35 34l-49-3c5-45 32-70 84-70 51 0 83 22 83 69" id="ag"/><path fill="#333" d="M165-50V0h-47v-50H5v-38l105-160h55v161h33v37h-33zm-47-37l2-116L46-87h72" id="ah"/><g id="c"><use transform="matrix(0.0493827160493827,0,0,0.0493827160493827,0,0)" xlink:href="#ac"/><use transform="matrix(0.0493827160493827,0,0,0.0493827160493827,9.876543209876539,0)" xlink:href="#ad"/><use transform="matrix(0.0493827160493827,0,0,0.0493827160493827,19.753086419753078,0)" xlink:href="#ae"/><use transform="matrix(0.0493827160493827,0,0,0.0493827160493827,24.691358024691347,0)" xlink:href="#ad"/><use transform="matrix(0.0493827160493827,0,0,0.0493827160493827,34.567901234567884,0)" xlink:href="#ae"/><use transform="matrix(0.0493827160493827,0,0,0.0493827160493827,39.506172839506156,0)" xlink:href="#ac"/><use transform="matrix(0.0493827160493827,0,0,0.0493827160493827,49.382716049382694,0)" xlink:href="#ae"/><use transform="matrix(0.0493827160493827,0,0,0.0493827160493827,54.320987654320966,0)" xlink:href="#ad"/><use transform="matrix(0.0493827160493827,0,0,0.0493827160493827,64.1975308641975,0)" xlink:href="#af"/><use transform="matrix(0.0493827160493827,0,0,0.0493827160493827,69.13580246913577,0)" xlink:href="#ag"/><use transform="matrix(0.0493827160493827,0,0,0.0493827160493827,79.01234567901231,0)" xlink:href="#ah"/></g><path fill="#ef8d22" d="M275 0h-61l-44-196L126 0H64L0-248h53L97-49l45-199h58l43 199 44-199h52" id="ai"/><path fill="#ef8d22" d="M185-48c-13 30-37 53-82 52C43 2 14-33 14-96s30-98 90-98c62 0 83 45 84 108H66c0 31 8 55 39 56 18 0 30-7 34-22zm-45-69c5-46-57-63-70-21-2 6-4 13-4 21h74" id="aj"/><path fill="#ef8d22" d="M135-194c52 0 70 43 70 98 0 56-19 99-73 100-30 1-46-15-58-35L72 0H24l1-261h50v104c11-23 29-37 60-37zM114-30c31 0 40-27 40-66 0-37-7-63-39-63s-41 28-41 65c0 36 8 64 40 64" id="ak"/><g id="d"><use transform="matrix(0.05555555555555555,0,0,0.05555555555555555,0,0)" xlink:href="#ai"/><use transform="matrix(0.05555555555555555,0,0,0.05555555555555555,18.444444444444443,0)" xlink:href="#aj"/><use transform="matrix(0.05555555555555555,0,0,0.05555555555555555,29.555555555555554,0)" xlink:href="#ak"/></g><path fill="#ef8d22" d="M169-182c-1-43-94-46-97-3 18 66 151 10 154 114 3 95-165 93-204 36-6-8-10-19-12-30l50-8c3 46 112 56 116 5-17-69-150-10-154-114-4-87 153-88 188-35 5 8 8 18 10 28" id="al"/><path fill="#ef8d22" d="M135-150c-39-12-60 13-60 57V0H25l-1-190h47c2 13-1 29 3 40 6-28 27-53 61-41v41" id="am"/><path fill="#ef8d22" d="M128 0H69L1-190h53L99-40l48-150h52" id="an"/><g id="e"><use transform="matrix(0.05555555555555555,0,0,0.05555555555555555,0,0)" xlink:href="#al"/><use transform="matrix(0.05555555555555555,0,0,0.05555555555555555,13.333333333333332,0)" xlink:href="#aj"/><use transform="matrix(0.05555555555555555,0,0,0.05555555555555555,24.444444444444443,0)" xlink:href="#am"/><use transform="matrix(0.05555555555555555,0,0,0.05555555555555555,32.22222222222222,0)" xlink:href="#an"/><use transform="matrix(0.05555555555555555,0,0,0.05555555555555555,43.33333333333333,0)" xlink:href="#aj"/><use transform="matrix(0.05555555555555555,0,0,0.05555555555555555,54.44444444444444,0)" xlink:href="#am"/></g><path fill="#ef8d22" d="M24 0v-248h195v40H76v63h132v40H76v65h150V0H24" id="ao"/><path fill="#ef8d22" d="M67-125c0 53 21 87 73 88 37 1 54-22 65-47l45 17C233-25 199 4 140 4 58 4 20-42 15-125 8-235 124-281 211-232c18 10 29 29 36 50l-46 12c-8-25-30-41-62-41-52 0-71 34-72 86" id="ap"/><path fill="#ef8d22" d="M182-182c0 78-84 86-111 141h115V0H12c-6-101 99-100 120-180 1-22-12-31-33-32-23 0-32 14-35 34l-49-3c5-45 32-70 84-70 51 0 83 22 83 69" id="aq"/><g id="f"><use transform="matrix(0.04320987654320988,0,0,0.04320987654320988,0,0)" xlink:href="#ao"/><use transform="matrix(0.04320987654320988,0,0,0.04320987654320988,10.370370370370372,0)" xlink:href="#ap"/><use transform="matrix(0.04320987654320988,0,0,0.04320987654320988,21.56172839506173,0)" xlink:href="#aq"/></g><g id="g"><use transform="matrix(0.04320987654320988,0,0,0.04320987654320988,0,0)" xlink:href="#ao"/><use transform="matrix(0.04320987654320988,0,0,0.04320987654320988,10.370370370370372,0)" xlink:href="#ap"/><use transform="matrix(0.04320987654320988,0,0,0.04320987654320988,21.56172839506173,0)" xlink:href="#aq"/></g><path fill="#ef8d22" d="M199 0l-22-63H83L61 0H9l90-248h61L250 0h-51zm-33-102l-36-108c-10 38-24 72-36 108h72" id="ar"/><path fill="#ef8d22" d="M135-194c53 0 70 44 70 98 0 56-19 98-73 100-31 1-45-17-59-34 3 33 2 69 2 105H25l-1-265h48c2 10 0 23 3 31 11-24 29-35 60-35zM114-30c33 0 39-31 40-66 0-38-9-64-40-64-56 0-55 130 0 130" id="as"/><g id="i"><use transform="matrix(0.05555555555555555,0,0,0.05555555555555555,0,0)" xlink:href="#ar"/><use transform="matrix(0.05555555555555555,0,0,0.05555555555555555,14.388888888888888,0)" xlink:href="#as"/><use transform="matrix(0.05555555555555555,0,0,0.05555555555555555,26.555555555555554,0)" xlink:href="#as"/></g><path d="M59-47c-2 24 18 29 38 22v24C64 9 27 4 27-40v-127H5v-23h24l9-43h21v43h35v23H59v120" id="at"/><g id="j"><use transform="matrix(0.05,0,0,0.05,0,0)" xlink:href="#U"/><use transform="matrix(0.05,0,0,0.05,12,0)" xlink:href="#aa"/><use transform="matrix(0.05,0,0,0.05,22,0)" xlink:href="#at"/><use transform="matrix(0.05,0,0,0.05,27,0)" xlink:href="#Z"/></g><path d="M96-169c-40 0-48 33-48 73s9 75 48 75c24 0 41-14 43-38l32 2c-6 37-31 61-74 61-59 0-76-41-82-99-10-93 101-131 147-64 4 7 5 14 7 22l-32 3c-4-21-16-35-41-35" id="au"/><path d="M141-36C126-15 110 5 73 4 37 3 15-17 15-53c-1-64 63-63 125-63 3-35-9-54-41-54-24 1-41 7-42 31l-33-3c5-37 33-52 76-52 45 0 72 20 72 64v82c-1 20 7 32 28 27v20c-31 9-61-2-59-35zM48-53c0 20 12 33 32 33 41-3 63-29 60-74-43 2-92-5-92 41" id="av"/><path d="M24-231v-30h32v30H24zM24 0v-190h32V0H24" id="aw"/><path d="M117-194c89-4 53 116 60 194h-32v-121c0-31-8-49-39-48C34-167 62-67 57 0H25l-1-190h30c1 10-1 24 2 32 11-22 29-35 61-36" id="ax"/><path d="M177-190C167-65 218 103 67 71c-23-6-38-20-44-43l32-5c15 47 100 32 89-28v-30C133-14 115 1 83 1 29 1 15-40 15-95c0-56 16-97 71-98 29-1 48 16 59 35 1-10 0-23 2-32h30zM94-22c36 0 50-32 50-73 0-42-14-75-50-75-39 0-46 34-46 75s6 73 46 73" id="ay"/><g id="k"><use transform="matrix(0.05,0,0,0.05,0,0)" xlink:href="#W"/><use transform="matrix(0.05,0,0,0.05,12,0)" xlink:href="#au"/><use transform="matrix(0.05,0,0,0.05,21,0)" xlink:href="#av"/><use transform="matrix(0.05,0,0,0.05,31,0)" xlink:href="#Y"/><use transform="matrix(0.05,0,0,0.05,34.95,0)" xlink:href="#aw"/><use transform="matrix(0.05,0,0,0.05,38.900000000000006,0)" xlink:href="#ax"/><use transform="matrix(0.05,0,0,0.05,48.900000000000006,0)" xlink:href="#ay"/></g><path fill="#ef8d22" d="M240-174c0 40-23 61-54 70L253 0h-59l-57-94H76V0H24v-248c93 4 217-23 216 74zM76-134c48-2 112 12 112-38 0-48-66-32-112-35v73" id="az"/><path fill="#ef8d22" d="M24-248c120-7 223 5 221 122C244-46 201 0 124 0H24v-248zM76-40c74 7 117-18 117-86 0-67-45-88-117-82v168" id="aA"/><g id="l"><use transform="matrix(0.05555555555555555,0,0,0.05555555555555555,0,0)" xlink:href="#az"/><use transform="matrix(0.05555555555555555,0,0,0.05555555555555555,14.388888888888888,0)" xlink:href="#aA"/><use transform="matrix(0.05555555555555555,0,0,0.05555555555555555,28.777777777777775,0)" xlink:href="#al"/></g><path fill="#ef8d22" d="M182-130c37 4 62 22 62 59C244 23 116-4 24 0v-248c84 5 203-23 205 63 0 31-19 50-47 55zM76-148c40-3 101 13 101-30 0-44-60-28-101-31v61zm0 110c48-3 116 14 116-37 0-48-69-32-116-35v72" id="aB"/><g id="m"><use transform="matrix(0.05555555555555555,0,0,0.05555555555555555,0,0)" xlink:href="#aA"/><use transform="matrix(0.05555555555555555,0,0,0.05555555555555555,14.388888888888888,0)" xlink:href="#aB"/></g><path fill="#ef8d22" d="M230 0l2-204L168 0h-37L68-204 70 0H24v-248h70l56 185 57-185h69V0h-46" id="aC"/><path fill="#ef8d22" d="M133-34C117-15 103 5 69 4 32 3 11-16 11-54c-1-60 55-63 116-61 1-26-3-47-28-47-18 1-26 9-28 27l-52-2c7-38 36-58 82-57s74 22 75 68l1 82c-1 14 12 18 25 15v27c-30 8-71 5-69-32zm-48 3c29 0 43-24 42-57-32 0-66-3-65 30 0 17 8 27 23 27" id="aD"/><path fill="#ef8d22" d="M137-138c1-29-70-34-71-4 15 46 118 7 119 86 1 83-164 76-172 9l43-7c4 19 20 25 44 25 33 8 57-30 24-41C81-84 22-81 20-136c-2-80 154-74 161-7" id="aE"/><path fill="#ef8d22" d="M115-3C79 11 28 4 28-45v-112H4v-33h27l15-45h31v45h36v33H77v99c-1 23 16 31 38 25v30" id="aF"/><g id="n"><use transform="matrix(0.04320987654320988,0,0,0.04320987654320988,0,0)" xlink:href="#aC"/><use transform="matrix(0.04320987654320988,0,0,0.04320987654320988,12.919753086419755,0)" xlink:href="#aD"/><use transform="matrix(0.04320987654320988,0,0,0.04320987654320988,21.56172839506173,0)" xlink:href="#aE"/><use transform="matrix(0.04320987654320988,0,0,0.04320987654320988,30.203703703703713,0)" xlink:href="#aF"/><use transform="matrix(0.04320987654320988,0,0,0.04320987654320988,35.345679012345684,0)" xlink:href="#aj"/><use transform="matrix(0.04320987654320988,0,0,0.04320987654320988,43.98765432098766,0)" xlink:href="#am"/></g><g id="o"><use transform="matrix(0.05555555555555555,0,0,0.05555555555555555,0,0)" xlink:href="#aA"/><use transform="matrix(0.05555555555555555,0,0,0.05555555555555555,14.388888888888888,0)" xlink:href="#aB"/></g><path fill="#ef8d22" d="M88-194c31-1 46 15 58 34l-1-101h50l1 261h-48c-2-10 0-23-3-31C134-8 116 4 84 4 32 4 16-41 15-95c0-56 19-97 73-99zm17 164c33 0 40-30 41-66 1-37-9-64-41-64s-38 30-39 65c0 43 13 65 39 65" id="aG"/><g id="p"><use transform="matrix(0.04320987654320988,0,0,0.04320987654320988,0,0)" xlink:href="#az"/><use transform="matrix(0.04320987654320988,0,0,0.04320987654320988,11.19135802469136,0)" xlink:href="#aj"/><use transform="matrix(0.04320987654320988,0,0,0.04320987654320988,19.833333333333336,0)" xlink:href="#aD"/><use transform="matrix(0.04320987654320988,0,0,0.04320987654320988,28.47530864197531,0)" xlink:href="#aG"/></g><path fill="#ef8d22" d="M25 0v-261h50V0H25" id="aH"/><path fill="#ef8d22" d="M25-224v-37h50v37H25zM25 0v-190h50V0H25" id="aI"/><path fill="#ef8d22" d="M190-63c-7 42-38 67-86 67-59 0-84-38-90-98-12-110 154-137 174-36l-49 2c-2-19-15-32-35-32-30 0-35 28-38 64-6 74 65 87 74 30" id="aJ"/><g id="q"><use transform="matrix(0.04320987654320988,0,0,0.04320987654320988,0,0)" xlink:href="#az"/><use transform="matrix(0.04320987654320988,0,0,0.04320987654320988,11.19135802469136,0)" xlink:href="#aj"/><use transform="matrix(0.04320987654320988,0,0,0.04320987654320988,19.833333333333336,0)" xlink:href="#as"/><use transform="matrix(0.04320987654320988,0,0,0.04320987654320988,29.296296296296298,0)" xlink:href="#aH"/><use transform="matrix(0.04320987654320988,0,0,0.04320987654320988,33.617283950617285,0)" xlink:href="#aI"/><use transform="matrix(0.04320987654320988,0,0,0.04320987654320988,37.93827160493827,0)" xlink:href="#aJ"/><use transform="matrix(0.04320987654320988,0,0,0.04320987654320988,46.58024691358024,0)" xlink:href="#aD"/></g><path fill="#333" d="M240-174c0 40-23 61-54 70L253 0h-59l-57-94H76V0H24v-248c93 4 217-23 216 74zM76-134c48-2 112 12 112-38 0-48-66-32-112-35v73" id="aK"/><path fill="#333" d="M185-48c-13 30-37 53-82 52C43 2 14-33 14-96s30-98 90-98c62 0 83 45 84 108H66c0 31 8 55 39 56 18 0 30-7 34-22zm-45-69c5-46-57-63-70-21-2 6-4 13-4 21h74" id="aL"/><path fill="#333" d="M135-194c53 0 70 44 70 98 0 56-19 98-73 100-31 1-45-17-59-34 3 33 2 69 2 105H25l-1-265h48c2 10 0 23 3 31 11-24 29-35 60-35zM114-30c33 0 39-31 40-66 0-38-9-64-40-64-56 0-55 130 0 130" id="aM"/><path fill="#333" d="M25 0v-261h50V0H25" id="aN"/><path fill="#333" d="M25-224v-37h50v37H25zM25 0v-190h50V0H25" id="aO"/><path fill="#333" d="M190-63c-7 42-38 67-86 67-59 0-84-38-90-98-12-110 154-137 174-36l-49 2c-2-19-15-32-35-32-30 0-35 28-38 64-6 74 65 87 74 30" id="aP"/><path fill="#333" d="M133-34C117-15 103 5 69 4 32 3 11-16 11-54c-1-60 55-63 116-61 1-26-3-47-28-47-18 1-26 9-28 27l-52-2c7-38 36-58 82-57s74 22 75 68l1 82c-1 14 12 18 25 15v27c-30 8-71 5-69-32zm-48 3c29 0 43-24 42-57-32 0-66-3-65 30 0 17 8 27 23 27" id="aQ"/><path fill="#333" d="M115-3C79 11 28 4 28-45v-112H4v-33h27l15-45h31v45h36v33H77v99c-1 23 16 31 38 25v30" id="aR"/><path fill="#333" d="M110-194c64 0 96 36 96 99 0 64-35 99-97 99-61 0-95-36-95-99 0-62 34-99 96-99zm-1 164c35 0 45-28 45-65 0-40-10-65-43-65-34 0-45 26-45 65 0 36 10 65 43 65" id="aS"/><path fill="#333" d="M135-194c87-1 58 113 63 194h-50c-7-57 23-157-34-157-59 0-34 97-39 157H25l-1-190h47c2 12-1 28 3 38 12-26 28-41 61-42" id="aT"/><g id="s"><use transform="matrix(0.04938271604938272,0,0,0.04938271604938272,0,0)" xlink:href="#aK"/><use transform="matrix(0.04938271604938272,0,0,0.04938271604938272,12.790123456790125,0)" xlink:href="#aL"/><use transform="matrix(0.04938271604938272,0,0,0.04938271604938272,22.66666666666667,0)" xlink:href="#aM"/><use transform="matrix(0.04938271604938272,0,0,0.04938271604938272,33.48148148148149,0)" xlink:href="#aN"/><use transform="matrix(0.04938271604938272,0,0,0.04938271604938272,38.41975308641976,0)" xlink:href="#aO"/><use transform="matrix(0.04938271604938272,0,0,0.04938271604938272,43.35802469135803,0)" xlink:href="#aP"/><use transform="matrix(0.04938271604938272,0,0,0.04938271604938272,53.23456790123457,0)" xlink:href="#aQ"/><use transform="matrix(0.04938271604938272,0,0,0.04938271604938272,63.111111111111114,0)" xlink:href="#aR"/><use transform="matrix(0.04938271604938272,0,0,0.04938271604938272,68.98765432098766,0)" xlink:href="#aO"/><use transform="matrix(0.04938271604938272,0,0,0.04938271604938272,73.92592592592592,0)" xlink:href="#aS"/><use transform="matrix(0.04938271604938272,0,0,0.04938271604938272,84.74074074074073,0)" xlink:href="#aT"/></g><path fill="#248814" d="M137 0h-34L2-248h35l83 218 83-218h36" id="aU"/><path fill="#248814" d="M24-231v-30h32v30H24zM24 0v-190h32V0H24" id="aV"/><path fill="#248814" d="M114-163C36-179 61-72 57 0H25l-1-190h30c1 12-1 29 2 39 6-27 23-49 58-41v29" id="aW"/><path fill="#248814" d="M59-47c-2 24 18 29 38 22v24C64 9 27 4 27-40v-127H5v-23h24l9-43h21v43h35v23H59v120" id="aX"/><path fill="#248814" d="M84 4C-5 8 30-112 23-190h32v120c0 31 7 50 39 49 72-2 45-101 50-169h31l1 190h-30c-1-10 1-25-2-33-11 22-28 36-60 37" id="aY"/><path fill="#248814" d="M141-36C126-15 110 5 73 4 37 3 15-17 15-53c-1-64 63-63 125-63 3-35-9-54-41-54-24 1-41 7-42 31l-33-3c5-37 33-52 76-52 45 0 72 20 72 64v82c-1 20 7 32 28 27v20c-31 9-61-2-59-35zM48-53c0 20 12 33 32 33 41-3 63-29 60-74-43 2-92-5-92 41" id="aZ"/><path fill="#248814" d="M24 0v-261h32V0H24" id="ba"/><g id="t"><use transform="matrix(0.05,0,0,0.05,0,0)" xlink:href="#aU"/><use transform="matrix(0.05,0,0,0.05,11.65,0)" xlink:href="#aV"/><use transform="matrix(0.05,0,0,0.05,15.600000000000001,0)" xlink:href="#aW"/><use transform="matrix(0.05,0,0,0.05,21.55,0)" xlink:href="#aX"/><use transform="matrix(0.05,0,0,0.05,26.55,0)" xlink:href="#aY"/><use transform="matrix(0.05,0,0,0.05,36.55,0)" xlink:href="#aZ"/><use transform="matrix(0.05,0,0,0.05,46.55,0)" xlink:href="#ba"/></g><path fill="#248814" d="M30-248c87 1 191-15 191 75 0 78-77 80-158 76V0H30v-248zm33 125c57 0 124 11 124-50 0-59-68-47-124-48v98" id="bb"/><path fill="#248814" d="M108 0H70L1-190h34L89-25l56-165h34" id="bc"/><path fill="#248814" d="M100-194c63 0 86 42 84 106H49c0 40 14 67 53 68 26 1 43-12 49-29l28 8c-11 28-37 45-77 45C44 4 14-33 15-96c1-61 26-98 85-98zm52 81c6-60-76-77-97-28-3 7-6 17-6 28h103" id="bd"/><g id="u"><use transform="matrix(0.05,0,0,0.05,0,0)" xlink:href="#bb"/><use transform="matrix(0.05,0,0,0.05,12,0)" xlink:href="#aW"/><use transform="matrix(0.05,0,0,0.05,17.95,0)" xlink:href="#aV"/><use transform="matrix(0.05,0,0,0.05,21.9,0)" xlink:href="#bc"/><use transform="matrix(0.05,0,0,0.05,30.899999999999995,0)" xlink:href="#aZ"/><use transform="matrix(0.05,0,0,0.05,40.9,0)" xlink:href="#aX"/><use transform="matrix(0.05,0,0,0.05,45.9,0)" xlink:href="#bd"/></g><path fill="#248814" d="M212-179c-10-28-35-45-73-45-59 0-87 40-87 99 0 60 29 101 89 101 43 0 62-24 78-52l27 14C228-24 195 4 139 4 59 4 22-46 18-125c-6-104 99-153 187-111 19 9 31 26 39 46" id="be"/><path fill="#248814" d="M100-194c62-1 85 37 85 99 1 63-27 99-86 99S16-35 15-95c0-66 28-99 85-99zM99-20c44 1 53-31 53-75 0-43-8-75-51-75s-53 32-53 75 10 74 51 75" id="bf"/><path fill="#248814" d="M85-194c31 0 48 13 60 33l-1-100h32l1 261h-30c-2-10 0-23-3-31C134-8 116 4 85 4 32 4 16-35 15-94c0-66 23-100 70-100zm9 24c-40 0-46 34-46 75 0 40 6 74 45 74 42 0 51-32 51-76 0-42-9-74-50-73" id="bg"/><g id="v"><use transform="matrix(0.05,0,0,0.05,0,0)" xlink:href="#be"/><use transform="matrix(0.05,0,0,0.05,12.950000000000001,0)" xlink:href="#ba"/><use transform="matrix(0.05,0,0,0.05,16.900000000000002,0)" xlink:href="#bf"/><use transform="matrix(0.05,0,0,0.05,26.900000000000002,0)" xlink:href="#aY"/><use transform="matrix(0.05,0,0,0.05,36.900000000000006,0)" xlink:href="#bg"/></g><path fill="#147eba" d="M205 0l-28-72H64L36 0H1l101-248h38L239 0h-34zm-38-99l-47-123c-12 45-31 82-46 123h93" id="bh"/><path fill="#147eba" d="M108 0H70L1-190h34L89-25l56-165h34" id="bi"/><path fill="#147eba" d="M141-36C126-15 110 5 73 4 37 3 15-17 15-53c-1-64 63-63 125-63 3-35-9-54-41-54-24 1-41 7-42 31l-33-3c5-37 33-52 76-52 45 0 72 20 72 64v82c-1 20 7 32 28 27v20c-31 9-61-2-59-35zM48-53c0 20 12 33 32 33 41-3 63-29 60-74-43 2-92-5-92 41" id="bj"/><path fill="#147eba" d="M24-231v-30h32v30H24zM24 0v-190h32V0H24" id="bk"/><path fill="#147eba" d="M24 0v-261h32V0H24" id="bl"/><path fill="#147eba" d="M115-194c53 0 69 39 70 98 0 66-23 100-70 100C84 3 66-7 56-30L54 0H23l1-261h32v101c10-23 28-34 59-34zm-8 174c40 0 45-34 45-75 0-40-5-75-45-74-42 0-51 32-51 76 0 43 10 73 51 73" id="bm"/><path fill="#147eba" d="M59-47c-2 24 18 29 38 22v24C64 9 27 4 27-40v-127H5v-23h24l9-43h21v43h35v23H59v120" id="bn"/><path fill="#147eba" d="M179-190L93 31C79 59 56 82 12 73V49c39 6 53-20 64-50L1-190h34L92-34l54-156h33" id="bo"/><g id="w"><use transform="matrix(0.05,0,0,0.05,0,0)" xlink:href="#bh"/><use transform="matrix(0.05,0,0,0.05,11.65,0)" xlink:href="#bi"/><use transform="matrix(0.05,0,0,0.05,20.65,0)" xlink:href="#bj"/><use transform="matrix(0.05,0,0,0.05,30.649999999999995,0)" xlink:href="#bk"/><use transform="matrix(0.05,0,0,0.05,34.6,0)" xlink:href="#bl"/><use transform="matrix(0.05,0,0,0.05,38.550000000000004,0)" xlink:href="#bj"/><use transform="matrix(0.05,0,0,0.05,48.550000000000004,0)" xlink:href="#bm"/><use transform="matrix(0.05,0,0,0.05,58.550000000000004,0)" xlink:href="#bk"/><use transform="matrix(0.05,0,0,0.05,62.5,0)" xlink:href="#bl"/><use transform="matrix(0.05,0,0,0.05,66.45,0)" xlink:href="#bk"/><use transform="matrix(0.05,0,0,0.05,70.4,0)" xlink:href="#bn"/><use transform="matrix(0.05,0,0,0.05,75.4,0)" xlink:href="#bo"/></g><path fill="#147eba" d="M209 0H11v-25l151-195H24v-28h176v25L50-27h159V0" id="bp"/><path fill="#147eba" d="M100-194c62-1 85 37 85 99 1 63-27 99-86 99S16-35 15-95c0-66 28-99 85-99zM99-20c44 1 53-31 53-75 0-43-8-75-51-75s-53 32-53 75 10 74 51 75" id="bq"/><path fill="#147eba" d="M117-194c89-4 53 116 60 194h-32v-121c0-31-8-49-39-48C34-167 62-67 57 0H25l-1-190h30c1 10-1 24 2 32 11-22 29-35 61-36" id="br"/><path fill="#147eba" d="M100-194c63 0 86 42 84 106H49c0 40 14 67 53 68 26 1 43-12 49-29l28 8c-11 28-37 45-77 45C44 4 14-33 15-96c1-61 26-98 85-98zm52 81c6-60-76-77-97-28-3 7-6 17-6 28h103" id="bs"/><path fill="#147eba" d="M33-154v-36h34v36H33zM33 0v-36h34V0H33" id="bt"/><g id="x"><use transform="matrix(0.05,0,0,0.05,0,0)" xlink:href="#bp"/><use transform="matrix(0.05,0,0,0.05,10.950000000000001,0)" xlink:href="#bq"/><use transform="matrix(0.05,0,0,0.05,20.950000000000003,0)" xlink:href="#br"/><use transform="matrix(0.05,0,0,0.05,30.950000000000003,0)" xlink:href="#bs"/><use transform="matrix(0.05,0,0,0.05,40.95,0)" xlink:href="#bt"/></g><path fill="#147eba" d="M84 4C-5 8 30-112 23-190h32v120c0 31 7 50 39 49 72-2 45-101 50-169h31l1 190h-30c-1-10 1-25-2-33-11 22-28 36-60 37" id="bu"/><path fill="#147eba" d="M135-143c-3-34-86-38-87 0 15 53 115 12 119 90S17 21 10-45l28-5c4 36 97 45 98 0-10-56-113-15-118-90-4-57 82-63 122-42 12 7 21 19 24 35" id="bv"/><path fill="#147eba" d="M16-82v-28h88v28H16" id="bw"/><path fill="#147eba" d="M27 0v-27h64v-190l-56 39v-29l58-41h29v221h61V0H27" id="bx"/><g id="y"><use transform="matrix(0.05,0,0,0.05,0,0)" xlink:href="#bu"/><use transform="matrix(0.05,0,0,0.05,10,0)" xlink:href="#bv"/><use transform="matrix(0.05,0,0,0.05,19,0)" xlink:href="#bw"/><use transform="matrix(0.05,0,0,0.05,24.95,0)" xlink:href="#bs"/><use transform="matrix(0.05,0,0,0.05,34.95,0)" xlink:href="#bj"/><use transform="matrix(0.05,0,0,0.05,44.95,0)" xlink:href="#bv"/><use transform="matrix(0.05,0,0,0.05,53.95,0)" xlink:href="#bn"/><use transform="matrix(0.05,0,0,0.05,58.95,0)" xlink:href="#bw"/><use transform="matrix(0.05,0,0,0.05,64.9,0)" xlink:href="#bx"/><use transform="matrix(0.05,0,0,0.05,74.9,0)" xlink:href="#bj"/></g><g id="z"><use transform="matrix(0.05,0,0,0.05,0,0)" xlink:href="#bu"/><use transform="matrix(0.05,0,0,0.05,10,0)" xlink:href="#bv"/><use transform="matrix(0.05,0,0,0.05,19,0)" xlink:href="#bw"/><use transform="matrix(0.05,0,0,0.05,24.95,0)" xlink:href="#bs"/><use transform="matrix(0.05,0,0,0.05,34.95,0)" xlink:href="#bj"/><use transform="matrix(0.05,0,0,0.05,44.95,0)" xlink:href="#bv"/><use transform="matrix(0.05,0,0,0.05,53.95,0)" xlink:href="#bn"/><use transform="matrix(0.05,0,0,0.05,58.95,0)" xlink:href="#bw"/><use transform="matrix(0.05,0,0,0.05,64.9,0)" xlink:href="#bx"/><use transform="matrix(0.05,0,0,0.05,74.9,0)" xlink:href="#bm"/></g><path fill="#333" d="M205 0l-28-72H64L36 0H1l101-248h38L239 0h-34zm-38-99l-47-123c-12 45-31 82-46 123h93" id="by"/><path fill="#333" d="M115-194c55 1 70 41 70 98S169 2 115 4C84 4 66-9 55-30l1 105H24l-1-265h31l2 30c10-21 28-34 59-34zm-8 174c40 0 45-34 45-75s-6-73-45-74c-42 0-51 32-51 76 0 43 10 73 51 73" id="bz"/><path fill="#333" d="M185-189c-5-48-123-54-124 2 14 75 158 14 163 119 3 78-121 87-175 55-17-10-28-26-33-46l33-7c5 56 141 63 141-1 0-78-155-14-162-118-5-82 145-84 179-34 5 7 8 16 11 25" id="bA"/><path fill="#333" d="M84 4C-5 8 30-112 23-190h32v120c0 31 7 50 39 49 72-2 45-101 50-169h31l1 190h-30c-1-10 1-25-2-33-11 22-28 36-60 37" id="bB"/><path fill="#333" d="M115-194c53 0 69 39 70 98 0 66-23 100-70 100C84 3 66-7 56-30L54 0H23l1-261h32v101c10-23 28-34 59-34zm-8 174c40 0 45-34 45-75 0-40-5-75-45-74-42 0-51 32-51 76 0 43 10 73 51 73" id="bC"/><path fill="#333" d="M117-194c89-4 53 116 60 194h-32v-121c0-31-8-49-39-48C34-167 62-67 57 0H25l-1-190h30c1 10-1 24 2 32 11-22 29-35 61-36" id="bD"/><path fill="#333" d="M100-194c63 0 86 42 84 106H49c0 40 14 67 53 68 26 1 43-12 49-29l28 8c-11 28-37 45-77 45C44 4 14-33 15-96c1-61 26-98 85-98zm52 81c6-60-76-77-97-28-3 7-6 17-6 28h103" id="bE"/><path fill="#333" d="M59-47c-2 24 18 29 38 22v24C64 9 27 4 27-40v-127H5v-23h24l9-43h21v43h35v23H59v120" id="bF"/><path fill="#333" d="M27 0v-27h64v-190l-56 39v-29l58-41h29v221h61V0H27" id="bG"/><path fill="#333" d="M141-36C126-15 110 5 73 4 37 3 15-17 15-53c-1-64 63-63 125-63 3-35-9-54-41-54-24 1-41 7-42 31l-33-3c5-37 33-52 76-52 45 0 72 20 72 64v82c-1 20 7 32 28 27v20c-31 9-61-2-59-35zM48-53c0 20 12 33 32 33 41-3 63-29 60-74-43 2-92-5-92 41" id="bH"/><g id="A"><use transform="matrix(0.04938271604938272,0,0,0.04938271604938272,0,0)" xlink:href="#by"/><use transform="matrix(0.04938271604938272,0,0,0.04938271604938272,11.851851851851853,0)" xlink:href="#bz"/><use transform="matrix(0.04938271604938272,0,0,0.04938271604938272,21.7283950617284,0)" xlink:href="#bz"/><use transform="matrix(0.04938271604938272,0,0,0.04938271604938272,31.60493827160494,0)" xlink:href="#bA"/><use transform="matrix(0.04938271604938272,0,0,0.04938271604938272,43.4567901234568,0)" xlink:href="#bB"/><use transform="matrix(0.04938271604938272,0,0,0.04938271604938272,53.333333333333336,0)" xlink:href="#bC"/><use transform="matrix(0.04938271604938272,0,0,0.04938271604938272,63.20987654320988,0)" xlink:href="#bD"/><use transform="matrix(0.04938271604938272,0,0,0.04938271604938272,73.08641975308643,0)" xlink:href="#bE"/><use transform="matrix(0.04938271604938272,0,0,0.04938271604938272,82.96296296296298,0)" xlink:href="#bF"/><use transform="matrix(0.04938271604938272,0,0,0.04938271604938272,87.90123456790124,0)" xlink:href="#bG"/><use transform="matrix(0.04938271604938272,0,0,0.04938271604938272,97.77777777777779,0)" xlink:href="#bH"/></g><path fill="#333" d="M266 0h-40l-56-210L115 0H75L2-248h35L96-30l15-64 43-154h32l59 218 59-218h35" id="bI"/><g id="B"><use transform="matrix(0.04938271604938272,0,0,0.04938271604938272,0,0)" xlink:href="#bI"/><use transform="matrix(0.04938271604938272,0,0,0.04938271604938272,16.39506172839506,0)" xlink:href="#bE"/><use transform="matrix(0.04938271604938272,0,0,0.04938271604938272,26.271604938271608,0)" xlink:href="#bC"/><use transform="matrix(0.04938271604938272,0,0,0.04938271604938272,36.14814814814815,0)" xlink:href="#bA"/><use transform="matrix(0.04938271604938272,0,0,0.04938271604938272,48.00000000000001,0)" xlink:href="#bB"/><use transform="matrix(0.04938271604938272,0,0,0.04938271604938272,57.87654320987655,0)" xlink:href="#bC"/><use transform="matrix(0.04938271604938272,0,0,0.04938271604938272,67.75308641975309,0)" xlink:href="#bD"/><use transform="matrix(0.04938271604938272,0,0,0.04938271604938272,77.62962962962963,0)" xlink:href="#bE"/><use transform="matrix(0.04938271604938272,0,0,0.04938271604938272,87.50617283950618,0)" xlink:href="#bF"/><use transform="matrix(0.04938271604938272,0,0,0.04938271604938272,92.44444444444446,0)" xlink:href="#bG"/><use transform="matrix(0.04938271604938272,0,0,0.04938271604938272,102.320987654321,0)" xlink:href="#bH"/></g><g id="C"><use transform="matrix(0.04938271604938272,0,0,0.04938271604938272,0,0)" xlink:href="#bI"/><use transform="matrix(0.04938271604938272,0,0,0.04938271604938272,16.39506172839506,0)" xlink:href="#bE"/><use transform="matrix(0.04938271604938272,0,0,0.04938271604938272,26.271604938271608,0)" xlink:href="#bC"/><use transform="matrix(0.04938271604938272,0,0,0.04938271604938272,36.14814814814815,0)" xlink:href="#bA"/><use transform="matrix(0.04938271604938272,0,0,0.04938271604938272,48.00000000000001,0)" xlink:href="#bB"/><use transform="matrix(0.04938271604938272,0,0,0.04938271604938272,57.87654320987655,0)" xlink:href="#bC"/><use transform="matrix(0.04938271604938272,0,0,0.04938271604938272,67.75308641975309,0)" xlink:href="#bD"/><use transform="matrix(0.04938271604938272,0,0,0.04938271604938272,77.62962962962963,0)" xlink:href="#bE"/><use transform="matrix(0.04938271604938272,0,0,0.04938271604938272,87.50617283950618,0)" xlink:href="#bF"/><use transform="matrix(0.04938271604938272,0,0,0.04938271604938272,92.44444444444446,0)" xlink:href="#bG"/><use transform="matrix(0.04938271604938272,0,0,0.04938271604938272,102.320987654321,0)" xlink:href="#bC"/></g><g id="D"><use transform="matrix(0.04938271604938272,0,0,0.04938271604938272,0,0)" xlink:href="#by"/><use transform="matrix(0.04938271604938272,0,0,0.04938271604938272,11.851851851851853,0)" xlink:href="#bz"/><use transform="matrix(0.04938271604938272,0,0,0.04938271604938272,21.7283950617284,0)" xlink:href="#bz"/><use transform="matrix(0.04938271604938272,0,0,0.04938271604938272,31.60493827160494,0)" xlink:href="#bA"/><use transform="matrix(0.04938271604938272,0,0,0.04938271604938272,43.4567901234568,0)" xlink:href="#bB"/><use transform="matrix(0.04938271604938272,0,0,0.04938271604938272,53.333333333333336,0)" xlink:href="#bC"/><use transform="matrix(0.04938271604938272,0,0,0.04938271604938272,63.20987654320988,0)" xlink:href="#bD"/><use transform="matrix(0.04938271604938272,0,0,0.04938271604938272,73.08641975308643,0)" xlink:href="#bE"/><use transform="matrix(0.04938271604938272,0,0,0.04938271604938272,82.96296296296298,0)" xlink:href="#bF"/><use transform="matrix(0.04938271604938272,0,0,0.04938271604938272,87.90123456790124,0)" xlink:href="#bG"/><use transform="matrix(0.04938271604938272,0,0,0.04938271604938272,97.77777777777779,0)" xlink:href="#bC"/></g><path fill="#333" d="M30-248c118-7 216 8 213 122C240-48 200 0 122 0H30v-248zM63-27c89 8 146-16 146-99s-60-101-146-95v194" id="bJ"/><g id="E"><use transform="matrix(0.04938271604938272,0,0,0.04938271604938272,0,0)" xlink:href="#bJ"/><use transform="matrix(0.04938271604938272,0,0,0.04938271604938272,12.790123456790125,0)" xlink:href="#bC"/><use transform="matrix(0.04938271604938272,0,0,0.04938271604938272,22.66666666666667,0)" xlink:href="#bA"/><use transform="matrix(0.04938271604938272,0,0,0.04938271604938272,34.518518518518526,0)" xlink:href="#bB"/><use transform="matrix(0.04938271604938272,0,0,0.04938271604938272,44.39506172839507,0)" xlink:href="#bC"/><use transform="matrix(0.04938271604938272,0,0,0.04938271604938272,54.27160493827161,0)" xlink:href="#bD"/><use transform="matrix(0.04938271604938272,0,0,0.04938271604938272,64.14814814814815,0)" xlink:href="#bE"/><use transform="matrix(0.04938271604938272,0,0,0.04938271604938272,74.0246913580247,0)" xlink:href="#bF"/><use transform="matrix(0.04938271604938272,0,0,0.04938271604938272,78.96296296296296,0)" xlink:href="#bG"/><use transform="matrix(0.04938271604938272,0,0,0.04938271604938272,88.8395061728395,0)" xlink:href="#bH"/></g><path fill="#666" d="M30-248c118-7 216 8 213 122C240-48 200 0 122 0H30v-248zM63-27c89 8 146-16 146-99s-60-101-146-95v194" id="bK"/><path fill="#666" d="M115-194c53 0 69 39 70 98 0 66-23 100-70 100C84 3 66-7 56-30L54 0H23l1-261h32v101c10-23 28-34 59-34zm-8 174c40 0 45-34 45-75 0-40-5-75-45-74-42 0-51 32-51 76 0 43 10 73 51 73" id="bL"/><path fill="#666" d="M185-189c-5-48-123-54-124 2 14 75 158 14 163 119 3 78-121 87-175 55-17-10-28-26-33-46l33-7c5 56 141 63 141-1 0-78-155-14-162-118-5-82 145-84 179-34 5 7 8 16 11 25" id="bM"/><path fill="#666" d="M84 4C-5 8 30-112 23-190h32v120c0 31 7 50 39 49 72-2 45-101 50-169h31l1 190h-30c-1-10 1-25-2-33-11 22-28 36-60 37" id="bN"/><path fill="#666" d="M117-194c89-4 53 116 60 194h-32v-121c0-31-8-49-39-48C34-167 62-67 57 0H25l-1-190h30c1 10-1 24 2 32 11-22 29-35 61-36" id="bO"/><path fill="#666" d="M100-194c63 0 86 42 84 106H49c0 40 14 67 53 68 26 1 43-12 49-29l28 8c-11 28-37 45-77 45C44 4 14-33 15-96c1-61 26-98 85-98zm52 81c6-60-76-77-97-28-3 7-6 17-6 28h103" id="bP"/><path fill="#666" d="M59-47c-2 24 18 29 38 22v24C64 9 27 4 27-40v-127H5v-23h24l9-43h21v43h35v23H59v120" id="bQ"/><g id="F"><use transform="matrix(0.04938271604938272,0,0,0.04938271604938272,0,0)" xlink:href="#bK"/><use transform="matrix(0.04938271604938272,0,0,0.04938271604938272,12.790123456790125,0)" xlink:href="#bL"/><use transform="matrix(0.04938271604938272,0,0,0.04938271604938272,22.66666666666667,0)" xlink:href="#bM"/><use transform="matrix(0.04938271604938272,0,0,0.04938271604938272,34.518518518518526,0)" xlink:href="#bN"/><use transform="matrix(0.04938271604938272,0,0,0.04938271604938272,44.39506172839507,0)" xlink:href="#bL"/><use transform="matrix(0.04938271604938272,0,0,0.04938271604938272,54.27160493827161,0)" xlink:href="#bO"/><use transform="matrix(0.04938271604938272,0,0,0.04938271604938272,64.14814814814815,0)" xlink:href="#bP"/><use transform="matrix(0.04938271604938272,0,0,0.04938271604938272,74.0246913580247,0)" xlink:href="#bQ"/></g><path fill="#666" d="M27 0v-27h64v-190l-56 39v-29l58-41h29v221h61V0H27" id="bR"/><g id="G"><use transform="matrix(0.04938271604938272,0,0,0.04938271604938272,0,0)" xlink:href="#bR"/><use transform="matrix(0.04938271604938272,0,0,0.04938271604938272,9.876543209876544,0)" xlink:href="#bL"/></g><path d="M100-194c63 0 86 42 84 106H49c0 40 14 67 53 68 26 1 43-12 49-29l28 8c-11 28-37 45-77 45C44 4 14-33 15-96c1-61 26-98 85-98zm52 81c6-60-76-77-97-28-3 7-6 17-6 28h103" id="bS"/><path d="M115-194c53 0 69 39 70 98 0 66-23 100-70 100C84 3 66-7 56-30L54 0H23l1-261h32v101c10-23 28-34 59-34zm-8 174c40 0 45-34 45-75 0-40-5-75-45-74-42 0-51 32-51 76 0 43 10 73 51 73" id="bT"/><g id="H"><use transform="matrix(0.05,0,0,0.05,0,0)" xlink:href="#V"/><use transform="matrix(0.05,0,0,0.05,16.599999999999998,0)" xlink:href="#bS"/><use transform="matrix(0.05,0,0,0.05,26.599999999999994,0)" xlink:href="#bT"/></g><path d="M190 0L58-211 59 0H30v-248h39L202-35l-2-213h31V0h-41" id="bU"/><path d="M206 0h-36l-40-164L89 0H53L-1-190h32L70-26l43-164h34l41 164 42-164h31" id="bV"/><path d="M114-163C36-179 61-72 57 0H25l-1-190h30c1 12-1 29 2 39 6-27 23-49 58-41v29" id="bW"/><path d="M143 0L79-87 56-68V0H24v-261h32v163l83-92h37l-77 82L181 0h-38" id="bX"/><g id="I"><use transform="matrix(0.05,0,0,0.05,0,0)" xlink:href="#bU"/><use transform="matrix(0.05,0,0,0.05,12.950000000000001,0)" xlink:href="#bS"/><use transform="matrix(0.05,0,0,0.05,22.950000000000003,0)" xlink:href="#at"/><use transform="matrix(0.05,0,0,0.05,27.950000000000003,0)" xlink:href="#bV"/><use transform="matrix(0.05,0,0,0.05,40.900000000000006,0)" xlink:href="#Z"/><use transform="matrix(0.05,0,0,0.05,50.900000000000006,0)" xlink:href="#bW"/><use transform="matrix(0.05,0,0,0.05,56.85,0)" xlink:href="#bX"/></g><path d="M30 0v-248h33v221h125V0H30" id="bY"/><g id="J"><use transform="matrix(0.05,0,0,0.05,0,0)" xlink:href="#bY"/><use transform="matrix(0.05,0,0,0.05,10,0)" xlink:href="#Z"/><use transform="matrix(0.05,0,0,0.05,20,0)" xlink:href="#av"/><use transform="matrix(0.05,0,0,0.05,30,0)" xlink:href="#ab"/></g><path d="M160-131c35 5 61 23 61 61C221 17 115-2 30 0v-248c76 3 177-17 177 60 0 33-19 50-47 57zm-97-11c50-1 110 9 110-42 0-47-63-36-110-37v79zm0 115c55-2 124 14 124-45 0-56-70-42-124-44v89" id="bZ"/><g id="K"><use transform="matrix(0.05,0,0,0.05,0,0)" xlink:href="#bZ"/><use transform="matrix(0.05,0,0,0.05,12,0)" xlink:href="#av"/><use transform="matrix(0.05,0,0,0.05,22,0)" xlink:href="#Y"/><use transform="matrix(0.05,0,0,0.05,25.950000000000003,0)" xlink:href="#av"/><use transform="matrix(0.05,0,0,0.05,35.95,0)" xlink:href="#ax"/><use transform="matrix(0.05,0,0,0.05,45.95,0)" xlink:href="#au"/><use transform="matrix(0.05,0,0,0.05,54.95,0)" xlink:href="#bS"/><use transform="matrix(0.05,0,0,0.05,64.95,0)" xlink:href="#bW"/></g><path d="M115-194c55 1 70 41 70 98S169 2 115 4C84 4 66-9 55-30l1 105H24l-1-265h31l2 30c10-21 28-34 59-34zm-8 174c40 0 45-34 45-75s-6-73-45-74c-42 0-51 32-51 76 0 43 10 73 51 73" id="ca"/><g id="L"><use transform="matrix(0.05,0,0,0.05,0,0)" xlink:href="#U"/><use transform="matrix(0.05,0,0,0.05,12,0)" xlink:href="#ca"/><use transform="matrix(0.05,0,0,0.05,22,0)" xlink:href="#ca"/></g><path fill="#333" d="M128-127c34 4 56 21 59 58 7 91-148 94-172 28-4-9-6-17-7-26l51-5c1 24 16 35 40 36 23 0 39-12 38-36-1-31-31-36-65-34v-40c32 2 59-3 59-33 0-20-13-33-34-33s-33 13-35 32l-50-3c6-44 37-68 86-68 50 0 83 20 83 66 0 35-22 52-53 58" id="cb"/><g id="M"><use transform="matrix(0.049382716049382706,0,0,0.049382716049382706,0,0)" xlink:href="#ac"/><use transform="matrix(0.049382716049382706,0,0,0.049382716049382706,9.87654320987654,0)" xlink:href="#ad"/><use transform="matrix(0.049382716049382706,0,0,0.049382716049382706,19.75308641975308,0)" xlink:href="#ae"/><use transform="matrix(0.049382716049382706,0,0,0.049382716049382706,24.691358024691354,0)" xlink:href="#ad"/><use transform="matrix(0.049382716049382706,0,0,0.049382716049382706,34.5679012345679,0)" xlink:href="#ae"/><use transform="matrix(0.049382716049382706,0,0,0.049382716049382706,39.50617283950617,0)" xlink:href="#cb"/><use transform="matrix(0.049382716049382706,0,0,0.049382716049382706,49.38271604938271,0)" xlink:href="#ae"/><use transform="matrix(0.049382716049382706,0,0,0.049382716049382706,54.32098765432098,0)" xlink:href="#ad"/><use transform="matrix(0.049382716049382706,0,0,0.049382716049382706,64.19753086419752,0)" xlink:href="#af"/><use transform="matrix(0.049382716049382706,0,0,0.049382716049382706,69.13580246913578,0)" xlink:href="#ag"/><use transform="matrix(0.049382716049382706,0,0,0.049382716049382706,79.01234567901233,0)" xlink:href="#ah"/></g><g id="N"><use transform="matrix(0.049382716049382706,0,0,0.049382716049382706,0,0)" xlink:href="#ac"/><use transform="matrix(0.049382716049382706,0,0,0.049382716049382706,9.87654320987654,0)" xlink:href="#ad"/><use transform="matrix(0.049382716049382706,0,0,0.049382716049382706,19.75308641975308,0)" xlink:href="#ae"/><use transform="matrix(0.049382716049382706,0,0,0.049382716049382706,24.691358024691354,0)" xlink:href="#ad"/><use transform="matrix(0.049382716049382706,0,0,0.049382716049382706,34.5679012345679,0)" xlink:href="#ae"/><use transform="matrix(0.049382716049382706,0,0,0.049382716049382706,39.50617283950617,0)" xlink:href="#ag"/><use transform="matrix(0.049382716049382706,0,0,0.049382716049382706,49.38271604938271,0)" xlink:href="#ae"/><use transform="matrix(0.049382716049382706,0,0,0.049382716049382706,54.32098765432098,0)" xlink:href="#ad"/><use transform="matrix(0.049382716049382706,0,0,0.049382716049382706,64.19753086419752,0)" xlink:href="#af"/><use transform="matrix(0.049382716049382706,0,0,0.049382716049382706,69.13580246913578,0)" xlink:href="#ag"/><use transform="matrix(0.049382716049382706,0,0,0.049382716049382706,79.01234567901233,0)" xlink:href="#ah"/></g><g id="O"><use transform="matrix(0.049382716049382706,0,0,0.049382716049382706,0,0)" xlink:href="#ac"/><use transform="matrix(0.049382716049382706,0,0,0.049382716049382706,9.87654320987654,0)" xlink:href="#ad"/><use transform="matrix(0.049382716049382706,0,0,0.049382716049382706,19.75308641975308,0)" xlink:href="#ae"/><use transform="matrix(0.049382716049382706,0,0,0.049382716049382706,24.691358024691354,0)" xlink:href="#ad"/><use transform="matrix(0.049382716049382706,0,0,0.049382716049382706,34.5679012345679,0)" xlink:href="#ae"/><use transform="matrix(0.049382716049382706,0,0,0.049382716049382706,39.50617283950617,0)" xlink:href="#ah"/><use transform="matrix(0.049382716049382706,0,0,0.049382716049382706,49.38271604938271,0)" xlink:href="#ae"/><use transform="matrix(0.049382716049382706,0,0,0.049382716049382706,54.32098765432098,0)" xlink:href="#ad"/><use transform="matrix(0.049382716049382706,0,0,0.049382716049382706,64.19753086419752,0)" xlink:href="#af"/><use transform="matrix(0.049382716049382706,0,0,0.049382716049382706,69.13580246913578,0)" xlink:href="#ag"/><use transform="matrix(0.049382716049382706,0,0,0.049382716049382706,79.01234567901233,0)" xlink:href="#ah"/></g><path fill="#333" d="M139-81c0-46-55-55-73-27H18l9-140h149v37H72l-4 63c44-38 133-4 122 66C201 21 21 35 11-62l49-4c5 18 15 30 39 30 26 0 40-18 40-45" id="cc"/><g id="P"><use transform="matrix(0.049382716049382706,0,0,0.049382716049382706,0,0)" xlink:href="#ac"/><use transform="matrix(0.049382716049382706,0,0,0.049382716049382706,9.87654320987654,0)" xlink:href="#ad"/><use transform="matrix(0.049382716049382706,0,0,0.049382716049382706,19.75308641975308,0)" xlink:href="#ae"/><use transform="matrix(0.049382716049382706,0,0,0.049382716049382706,24.691358024691354,0)" xlink:href="#ad"/><use transform="matrix(0.049382716049382706,0,0,0.049382716049382706,34.5679012345679,0)" xlink:href="#ae"/><use transform="matrix(0.049382716049382706,0,0,0.049382716049382706,39.50617283950617,0)" xlink:href="#cc"/><use transform="matrix(0.049382716049382706,0,0,0.049382716049382706,49.38271604938271,0)" xlink:href="#ae"/><use transform="matrix(0.049382716049382706,0,0,0.049382716049382706,54.32098765432098,0)" xlink:href="#ad"/><use transform="matrix(0.049382716049382706,0,0,0.049382716049382706,64.19753086419752,0)" xlink:href="#af"/><use transform="matrix(0.049382716049382706,0,0,0.049382716049382706,69.13580246913578,0)" xlink:href="#ag"/><use transform="matrix(0.049382716049382706,0,0,0.049382716049382706,79.01234567901233,0)" xlink:href="#ah"/></g><path fill="#333" d="M115-159c48 0 72 30 72 78 0 54-30 85-83 85-64 0-91-50-91-122 0-98 58-163 141-120 15 8 21 24 27 44l-47 6c-5-31-48-31-61-4-7 14-11 33-11 60 9-17 28-27 53-27zM102-35c24 0 36-20 36-45s-11-43-37-43c-23 0-36 14-36 38 0 27 11 50 37 50" id="cd"/><g id="Q"><use transform="matrix(0.049382716049382706,0,0,0.049382716049382706,0,0)" xlink:href="#ac"/><use transform="matrix(0.049382716049382706,0,0,0.049382716049382706,9.87654320987654,0)" xlink:href="#ad"/><use transform="matrix(0.049382716049382706,0,0,0.049382716049382706,19.75308641975308,0)" xlink:href="#ae"/><use transform="matrix(0.049382716049382706,0,0,0.049382716049382706,24.691358024691354,0)" xlink:href="#ad"/><use transform="matrix(0.049382716049382706,0,0,0.049382716049382706,34.5679012345679,0)" xlink:href="#ae"/><use transform="matrix(0.049382716049382706,0,0,0.049382716049382706,39.50617283950617,0)" xlink:href="#cd"/><use transform="matrix(0.049382716049382706,0,0,0.049382716049382706,49.38271604938271,0)" xlink:href="#ae"/><use transform="matrix(0.049382716049382706,0,0,0.049382716049382706,54.32098765432098,0)" xlink:href="#ad"/><use transform="matrix(0.049382716049382706,0,0,0.049382716049382706,64.19753086419752,0)" xlink:href="#af"/><use transform="matrix(0.049382716049382706,0,0,0.049382716049382706,69.13580246913578,0)" xlink:href="#ag"/><use transform="matrix(0.049382716049382706,0,0,0.049382716049382706,79.01234567901233,0)" xlink:href="#ah"/></g><path d="M33 0v-248h34V0H33" id="ce"/><g id="R"><use transform="matrix(0.05,0,0,0.05,0,0)" xlink:href="#ce"/><use transform="matrix(0.05,0,0,0.05,5,0)" xlink:href="#ax"/><use transform="matrix(0.05,0,0,0.05,15,0)" xlink:href="#at"/><use transform="matrix(0.05,0,0,0.05,20,0)" xlink:href="#bS"/><use transform="matrix(0.05,0,0,0.05,30,0)" xlink:href="#bW"/><use transform="matrix(0.05,0,0,0.05,35.95,0)" xlink:href="#ax"/><use transform="matrix(0.05,0,0,0.05,45.95,0)" xlink:href="#bS"/><use transform="matrix(0.05,0,0,0.05,55.95,0)" xlink:href="#at"/></g><path d="M665-137c214 0 337-121 336-332v-987h193v990c-3 300-218 486-529 486-309 0-526-181-525-484v-992h190v986c-1 210 123 333 335 333" id="cf"/><path d="M538-131c121 0 232-49 232-156 0-50-20-88-56-117-73-60-334-92-420-143-92-55-162-110-162-238 0-190 192-317 400-317 223 0 414 129 413 338H759c0-108-110-186-227-186-119 0-215 53-215 159 0 45 18 78 53 101 76 52 331 90 416 139 98 57 169 115 169 251C955-92 760 20 538 20c-176 0-314-68-386-174-38-55-57-115-57-179h185c6 129 116 202 258 202" id="cg"/><path d="M599-131c141 0 220-65 285-146l113 88C906-50 770 20 589 20 281 21 93-214 93-545c0-223 93-397 233-485 74-48 154-72 240-72 300 2 449 218 445 537v77H278c0 197 129 357 321 357zm227-509c-3-180-88-310-260-310-170 0-264 140-282 310h542" id="ch"/><path d="M663-916c-163-27-288 18-338 148V0H140v-1082h180l3 125c61-97 147-145 258-145 36 0 63 5 82 14v172" id="ci"/><g id="T"><use transform="matrix(0.0065107421875,0,0,0.0065107421875,0,0)" xlink:href="#cf"/><use transform="matrix(0.0065107421875,0,0,0.0065107421875,8.646265625,0)" xlink:href="#cg"/><use transform="matrix(0.0065107421875,0,0,0.0065107421875,15.521609374999999,0)" xlink:href="#ch"/><use transform="matrix(0.0065107421875,0,0,0.0065107421875,22.5857646484375,0)" xlink:href="#ci"/><use transform="matrix(0.0065107421875,0,0,0.0065107421875,27.097708984375,0)" xlink:href="#cg"/></g><filter id="S" filterUnits="objectBoundingBox" x="-.02" y="0" width="1.03" height="1.02"><feOffset result="offOut" in="SourceAlpha" dy="1"/><feGaussianBlur result="blurOut" in="offOut" stdDeviation=".75"/><feColorMatrix result="colorOut" in="blurOut" values="0 0 0 0 0 0 0 0 0 0 0 0 0 0 0 0 0 0 0.4 0"/><feBlend in="SourceGraphic" in2="colorOut"/></filter></defs></g></svg>